<?xml version="1.0" encoding="utf-8"?>
<!-- Generator: Adobe Illustrator 15.0.0, SVG Export Plug-In . SVG Version: 6.00 Build 0)  -->
<!DOCTYPE svg PUBLIC "-//W3C//DTD SVG 1.1//EN" "http://www.w3.org/Graphics/SVG/1.1/DTD/svg11.dtd">
<svg version="1.1" id="Laag_1" xmlns="http://www.w3.org/2000/svg" xmlns:xlink="http://www.w3.org/1999/xlink" x="0px" y="0px"
	 width="487.561px" height="59.529px" viewBox="0 0 487.561 59.529" enable-background="new 0 0 487.561 59.529"
	 xml:space="preserve">
<g>
	<path fill="none" d="M231.554,33.736c0.238-0.265,0.427-0.593,0.566-0.982c0.139-0.381,0.244-0.802,0.315-1.265
		c0.072-0.463,0.107-0.902,0.107-1.319c0-0.465-0.08-0.808-0.236-1.023c-0.158-0.22-0.385-0.328-0.682-0.328
		c-0.307,0-0.587,0.122-0.839,0.368c-0.255,0.244-0.461,0.602-0.621,1.072c-0.139,0.395-0.238,0.82-0.296,1.279
		c-0.061,0.459-0.091,0.867-0.091,1.229c0,0.479,0.08,0.829,0.238,1.046c0.16,0.217,0.39,0.324,0.692,0.324
		C231.033,34.135,231.315,34.003,231.554,33.736z"/>
	<path fill="none" d="M222.95,34.058c0.247,0,0.482-0.096,0.711-0.286c0.227-0.189,0.423-0.45,0.585-0.778
		c0.17-0.348,0.299-0.709,0.387-1.09c0.086-0.383,0.13-0.809,0.13-1.281c0-0.196-0.015-0.375-0.042-0.541
		c-0.027-0.164-0.078-0.306-0.147-0.425c-0.071-0.122-0.168-0.22-0.288-0.287c-0.122-0.065-0.273-0.101-0.455-0.101
		c-0.21,0-0.417,0.066-0.619,0.197s-0.352,0.252-0.446,0.368l-0.738,3.271c0,0.274,0.08,0.503,0.238,0.682
		C222.427,33.967,222.654,34.058,222.95,34.058z"/>
	<path fill="none" d="M271.272,29.245c-0.074-0.099-0.168-0.179-0.278-0.235c-0.112-0.057-0.265-0.086-0.453-0.086
		c-0.254,0-0.492,0.096-0.711,0.281c-0.222,0.189-0.417,0.446-0.587,0.771c-0.16,0.303-0.286,0.661-0.383,1.074
		c-0.096,0.415-0.143,0.843-0.143,1.281c0,0.196,0.016,0.375,0.045,0.541c0.029,0.168,0.077,0.311,0.146,0.423
		c0.071,0.124,0.169,0.22,0.291,0.286c0.118,0.067,0.271,0.103,0.454,0.103c0.188,0,0.375-0.056,0.558-0.164
		c0.187-0.11,0.353-0.242,0.499-0.402l0.755-3.266c0-0.1-0.013-0.2-0.04-0.307C271.399,29.442,271.349,29.34,271.272,29.245z"/>
	<path fill="none" d="M181.645,33.76c0.08,0.112,0.167,0.196,0.263,0.256c0.095,0.062,0.231,0.091,0.41,0.091
		c0.27,0,0.522-0.103,0.76-0.301c0.236-0.2,0.434-0.464,0.591-0.789c0.175-0.351,0.305-0.719,0.394-1.105
		c0.086-0.387,0.13-0.815,0.13-1.289c0-0.196-0.013-0.375-0.042-0.541c-0.027-0.164-0.076-0.306-0.147-0.425
		c-0.071-0.122-0.168-0.22-0.291-0.287c-0.12-0.065-0.271-0.101-0.454-0.101c-0.202,0-0.396,0.057-0.577,0.171
		c-0.183,0.113-0.347,0.246-0.488,0.396l-0.751,3.324c0,0.095,0.015,0.191,0.042,0.293C181.513,33.551,181.568,33.654,181.645,33.76
		z"/>
	<path fill="none" d="M254.808,29.276c-0.072-0.104-0.164-0.183-0.279-0.234c-0.115-0.055-0.26-0.082-0.43-0.082
		c-0.264,0-0.506,0.096-0.725,0.284c-0.221,0.188-0.416,0.438-0.587,0.751c-0.168,0.311-0.3,0.67-0.394,1.08
		c-0.098,0.41-0.144,0.831-0.144,1.258c0,0.196,0.015,0.375,0.044,0.541c0.029,0.168,0.078,0.311,0.146,0.423
		c0.07,0.124,0.168,0.22,0.289,0.286c0.121,0.067,0.273,0.103,0.457,0.103c0.186,0,0.366-0.056,0.539-0.164
		c0.172-0.11,0.334-0.242,0.481-0.402l0.759-3.229c0-0.09-0.01-0.189-0.035-0.311C254.909,29.458,254.867,29.358,254.808,29.276z"/>
	<path fill="none" d="M228.528,56.007h10.734c3.045,0,5.629-0.175,7.75-0.518c2.121-0.344,3.975-0.907,5.565-1.69
		c1.591-0.781,2.981-1.81,4.173-3.082c2.823-2.874,4.688-6.812,5.7-11.677h-33.923V56.007L228.528,56.007z"/>
	<path fill="none" d="M175.821,29.276c-0.072-0.104-0.164-0.183-0.28-0.234c-0.114-0.055-0.257-0.082-0.429-0.082
		c-0.261,0-0.503,0.096-0.724,0.284c-0.221,0.188-0.417,0.438-0.587,0.751c-0.167,0.311-0.299,0.67-0.394,1.08
		c-0.095,0.41-0.143,0.831-0.143,1.258c0,0.196,0.015,0.375,0.044,0.541c0.03,0.168,0.08,0.311,0.147,0.423
		c0.072,0.124,0.168,0.22,0.289,0.286c0.122,0.067,0.273,0.103,0.457,0.103c0.187,0,0.368-0.056,0.541-0.164
		c0.173-0.11,0.333-0.242,0.48-0.402l0.762-3.229c0-0.09-0.013-0.189-0.036-0.311C175.924,29.458,175.882,29.358,175.821,29.276z"/>
	<path fill="none" d="M20.808,41.033c0.897,3.352,2.199,6.243,3.894,8.665c1.695,2.428,3.724,4.275,6.083,5.549
		c2.359,1.272,4.979,1.91,7.87,1.91c3.926,0,7.338-1.119,10.239-3.358c2.904-2.239,5.13-5.44,6.679-9.601
		c0.591-1.589,1.036-3.333,1.401-5.158h-36.59C20.522,39.707,20.637,40.394,20.808,41.033z"/>
	<path fill="none" d="M297.308,29.276c-0.07-0.104-0.164-0.183-0.279-0.234c-0.115-0.055-0.258-0.082-0.43-0.082
		c-0.263,0-0.504,0.096-0.724,0.284c-0.222,0.188-0.417,0.438-0.587,0.751c-0.169,0.311-0.299,0.67-0.395,1.08
		c-0.097,0.41-0.144,0.831-0.144,1.258c0,0.196,0.015,0.375,0.044,0.541c0.03,0.168,0.078,0.311,0.146,0.423
		c0.07,0.124,0.168,0.22,0.291,0.286c0.119,0.067,0.272,0.103,0.455,0.103c0.187,0,0.366-0.056,0.539-0.164
		c0.172-0.11,0.334-0.242,0.481-0.402l0.76-3.229c0-0.09-0.011-0.189-0.036-0.311C297.41,29.458,297.368,29.358,297.308,29.276z"/>
	<path fill="none" d="M304.063,41.033c0.896,3.352,2.195,6.243,3.893,8.665c1.695,2.428,3.725,4.275,6.083,5.549
		c2.358,1.272,4.979,1.91,7.87,1.91c3.926,0,7.339-1.119,10.238-3.358c2.903-2.239,5.131-5.44,6.679-9.601
		c0.592-1.589,1.032-3.333,1.401-5.158h-36.59C303.776,39.707,303.892,40.394,304.063,41.033z"/>
	<path fill="none" d="M195.438,30.712c0.13-0.208,0.196-0.48,0.196-0.823c0-0.338-0.061-0.597-0.183-0.774
		c-0.124-0.182-0.294-0.274-0.513-0.274c-0.305,0-0.594,0.251-0.867,0.75c-0.271,0.496-0.444,1.127-0.52,1.893
		c0.233-0.03,0.465-0.063,0.696-0.107c0.229-0.044,0.413-0.097,0.547-0.156C195.094,31.087,195.308,30.918,195.438,30.712z"/>
	<path fill="none" d="M260.163,14.231c-1.028-2.066-2.331-3.885-3.895-5.448c-1.302-1.272-2.762-2.3-4.393-3.083
		c-1.631-0.782-3.508-1.346-5.645-1.689c-2.129-0.343-4.694-0.518-7.69-0.518h-10.018h-0.01V21.61h34.048
		c-0.014-0.067-0.023-0.139-0.037-0.206C261.987,18.687,261.199,16.297,260.163,14.231z"/>
	<path fill="none" d="M336.219,10.506c-1.589-2.396-3.51-4.297-5.762-5.705c-1.115-0.735-2.399-1.336-3.858-1.785
		c-1.457-0.452-2.861-0.679-4.213-0.679c-2.41,0-4.682,0.417-6.816,1.252c-2.135,0.838-3.932,2.024-5.387,3.56
		c-1.597,1.667-2.951,3.649-4.078,5.941c-1.127,2.293-1.975,4.851-2.543,7.673c-0.057,0.274-0.095,0.567-0.144,0.848h37.032
		c-0.164-0.9-0.348-1.791-0.574-2.658C339.028,15.718,337.81,12.906,336.219,10.506z"/>
	<path fill="none" d="M52.966,10.506c-1.589-2.396-3.509-4.297-5.762-5.705c-1.113-0.735-2.401-1.336-3.857-1.785
		c-1.457-0.452-2.864-0.679-4.215-0.679c-2.409,0-4.682,0.417-6.816,1.252c-2.135,0.838-3.931,2.024-5.387,3.56
		c-1.594,1.667-2.95,3.649-4.077,5.941c-1.127,2.293-1.975,4.851-2.543,7.673c-0.055,0.274-0.095,0.567-0.145,0.848h37.033
		c-0.165-0.9-0.349-1.791-0.575-2.658C55.774,15.718,54.555,12.906,52.966,10.506z"/>
	<path fill="none" d="M326.51,29.883c0-0.101-0.015-0.201-0.04-0.307c-0.025-0.104-0.076-0.207-0.15-0.301
		c-0.076-0.101-0.168-0.18-0.28-0.234c-0.11-0.059-0.263-0.088-0.454-0.088c-0.257,0-0.497,0.093-0.716,0.277
		c-0.218,0.186-0.41,0.432-0.576,0.741c-0.164,0.307-0.293,0.661-0.388,1.069c-0.098,0.406-0.143,0.827-0.143,1.259
		c0,0.191,0.016,0.366,0.051,0.528c0.033,0.16,0.09,0.305,0.174,0.432c0.084,0.126,0.191,0.224,0.324,0.286
		c0.133,0.063,0.283,0.096,0.449,0.096c0.194,0,0.395-0.061,0.598-0.181c0.205-0.117,0.369-0.246,0.494-0.381L326.51,29.883z"/>
	<path fill="none" d="M305.358,29.245c-0.075-0.099-0.17-0.179-0.279-0.235c-0.111-0.057-0.264-0.086-0.454-0.086
		c-0.253,0-0.49,0.096-0.711,0.281c-0.222,0.189-0.417,0.446-0.587,0.771c-0.158,0.303-0.286,0.661-0.381,1.074
		c-0.096,0.415-0.145,0.843-0.145,1.281c0,0.196,0.016,0.375,0.045,0.541c0.029,0.168,0.079,0.311,0.146,0.423
		c0.07,0.124,0.169,0.22,0.287,0.286c0.123,0.067,0.273,0.103,0.457,0.103c0.188,0,0.373-0.056,0.559-0.164
		c0.186-0.11,0.352-0.242,0.499-0.402l0.753-3.266c0-0.1-0.013-0.2-0.038-0.307C305.485,29.442,305.433,29.34,305.358,29.245z"/>
	<path fill="#B68D40" d="M470.042,37.407h-11.729c0,0.003,0,0.005,0,0.007H419.97l-0.005-0.007H406.95l0.004,0.007h-15.87h-2.233
		h-0.431v-0.007h-11.608v0.007h-22.697c0.002-0.004,0.005-0.007,0.005-0.011h-13.556c0,0.004-0.002,0.007-0.002,0.011h-37.271
		c0-0.004-0.002-0.007-0.002-0.011h-13.66c0.002,0.004,0.002,0.007,0.004,0.011h-13.432h-13.394h-34.281H216.8h-30.014v-0.007
		H175.06c0,0.003,0,0.005,0,0.007h-38.343l-0.004-0.007h-13.019l0.004,0.007h-15.863H105.6h-0.435v-0.007H93.556v0.007H70.864
		c0.002-0.004,0.003-0.007,0.004-0.011H57.309c0,0.004-0.002,0.007-0.002,0.011H20.036c-0.001-0.004-0.001-0.007-0.002-0.011H6.374
		c0.001,0.004,0.003,0.007,0.004,0.011H0.717v1.626h6.244c0.25,0.636,0.521,1.269,0.824,1.894c1.736,3.549,4.155,6.658,7.256,9.32
		c3.102,2.666,6.684,4.723,10.756,6.185c4.068,1.456,8.406,2.185,13.02,2.185c6.042,0,11.603-1.286,16.679-3.856
		c5.075-2.568,9.088-6.057,12.048-10.453c1.137-1.694,2.05-3.453,2.752-5.271h23.262v6.866c0,3.396-0.843,5.924-2.524,7.594
		c-1.681,1.673-4.232,2.507-7.654,2.507h-1.55v1.554h35.062v-1.554h-1.63c-3.339,0-5.859-0.834-7.554-2.507
		c-1.695-1.67-2.542-4.198-2.542-7.594V39.55l0.635-0.508h18.953l6.253,9.65c0.687,1.086,1.145,1.875,1.37,2.365
		c0.224,0.489,0.339,0.945,0.339,1.368c0,2.388-2.529,3.577-7.595,3.577h-1.792v1.555h34.27v-1.555h-1.035
		c-2.73,0-5.122-0.642-7.173-1.927c-2.053-1.288-4.009-3.358-5.865-6.223l-5.747-8.813h37.277c0,0.865,0,1.729,0,2.651
		c0,1.246,0,2.652,0,4.215c0,3.417-0.829,5.955-2.483,7.613c-1.658,1.657-4.196,2.481-7.613,2.481h-1.553v1.555h34.984v-1.555
		h-1.548c-3.394,0-5.918-0.829-7.572-2.481c-1.658-1.654-2.483-4.196-2.483-7.613V39.04h30.014v6.871
		c0,3.417-0.829,5.954-2.483,7.612c-1.658,1.658-4.196,2.482-7.613,2.482h-2.03v1.554h39.478c4.719,0,9.103-0.654,13.162-1.971
		c4.055-1.311,7.559-3.175,10.515-5.584c2.954-2.409,5.239-5.271,6.854-8.59c0.377-0.773,0.694-1.568,0.982-2.376h14.547
		c0.25,0.636,0.521,1.269,0.824,1.894c1.738,3.549,4.156,6.658,7.256,9.32c3.102,2.666,6.686,4.723,10.752,6.185
		c4.069,1.456,8.406,2.185,13.021,2.185c6.041,0,11.603-1.286,16.678-3.856c5.074-2.568,9.088-6.057,12.049-10.453
		c1.137-1.694,2.051-3.453,2.75-5.271h23.27v6.866c0,3.395-0.844,5.924-2.523,7.594c-1.684,1.673-4.232,2.507-7.654,2.507h-1.554
		v1.554h35.062v-1.554h-1.629c-3.342,0-5.86-0.834-7.555-2.507c-1.695-1.67-2.542-4.199-2.542-7.594v-6.358l0.634-0.508h18.959
		l6.252,9.65c0.686,1.086,1.145,1.875,1.369,2.365c0.225,0.489,0.34,0.945,0.34,1.368c0,2.388-2.529,3.577-7.598,3.577h-1.788v1.555
		h34.27v-1.555h-1.035c-2.731,0-5.122-0.642-7.176-1.927c-2.053-1.288-4.007-3.358-5.862-6.223l-5.748-8.813h37.277
		c0,0.865,0,1.729,0,2.651c0,1.246,0,2.652,0,4.215c0,3.417-0.829,5.955-2.482,7.613c-1.658,1.657-4.196,2.481-7.613,2.481h-1.553
		v1.555h34.984V56h-1.55c-3.395,0-5.917-0.829-7.57-2.481c-1.658-1.654-2.482-4.196-2.482-7.613V39.04h16.802v-1.626h-16.802v-0.007
		H470.042z M55.573,44.198c-1.549,4.159-3.775,7.36-6.679,9.601c-2.901,2.239-6.313,3.358-10.239,3.358
		c-2.89,0-5.511-0.638-7.87-1.91c-2.359-1.272-4.388-3.121-6.083-5.549c-1.695-2.422-2.997-5.313-3.894-8.665
		c-0.171-0.64-0.286-1.326-0.425-1.993h36.591C56.609,40.865,56.164,42.61,55.573,44.198z M256.751,50.717
		c-1.191,1.272-2.582,2.301-4.173,3.082c-1.591,0.783-3.444,1.348-5.565,1.69s-4.706,0.518-7.75,0.518h-10.734V39.04h33.923
		C261.438,43.906,259.574,47.843,256.751,50.717z M338.826,44.198c-1.548,4.159-3.774,7.36-6.679,9.601
		c-2.899,2.239-6.313,3.358-10.238,3.358c-2.891,0-5.512-0.638-7.87-1.91s-4.388-3.121-6.083-5.549
		c-1.696-2.422-2.996-5.313-3.893-8.665c-0.172-0.64-0.287-1.326-0.426-1.993h36.59C339.858,40.865,339.418,42.61,338.826,44.198z"
		/>
	<path fill="#B68D40" d="M470.042,21.61v-8.021c-0.005-3.443,0.814-5.991,2.46-7.632c1.643-1.646,4.172-2.464,7.594-2.464h1.549
		V2.022H446.66v1.471h1.553c3.18,0,5.567,0.701,7.154,2.106c0.875,0.691,1.532,1.553,1.972,2.584
		c0.437,1.034,0.76,2.424,0.976,4.173c0,2.369,0,5.479,0,9.254h-47.647l10.271-8.182C429.209,6.75,435.58,3.41,440.06,3.41h0.798
		V2.018h-32.479V3.41h1.312c2.912,0,5.221,0.59,6.914,1.769c1.695,1.176,2.543,2.763,2.543,4.752c0,1.218-0.297,2.284-0.894,3.198
		c-0.594,0.918-1.769,2.105-3.519,3.562l-6.146,4.92h-20.17v-8.021c0-3.417,0.847-5.969,2.542-7.653
		c1.694-1.683,4.213-2.523,7.555-2.523h1.629V2.018h-35.145V3.41h1.633c3.417,0,5.967,0.842,7.654,2.523
		c1.68,1.681,2.523,4.232,2.523,7.653v8.021h-23.026c-0.226-0.643-0.472-1.283-0.749-1.919c-1.456-3.327-3.521-6.34-6.203-9.044
		c-3.178-3.181-6.925-5.599-11.232-7.256c-4.305-1.657-9.057-2.482-14.248-2.482c-5.885,0-11.343,1.305-16.377,3.916
		c-5.035,2.611-9.054,6.145-12.05,10.597c-1.341,1.991-2.366,4.056-3.108,6.188h-14.453c-0.174-0.459-0.313-0.924-0.516-1.379
		c-1.496-3.366-3.623-6.387-6.38-9.066c-3.047-3.102-6.803-5.398-11.271-6.896c-4.465-1.498-9.691-2.245-15.683-2.245h-36.853v1.471
		h2.029c3.445,0,5.987,0.818,7.632,2.464c1.645,1.646,2.465,4.188,2.465,7.632v8.021h-30v-8.021h-0.004
		c0-3.443,0.819-5.985,2.464-7.632c1.645-1.646,4.174-2.464,7.595-2.464h1.548v-1.47h-34.984v1.471h1.553
		c3.179,0,5.565,0.701,7.155,2.106c0.875,0.691,1.53,1.553,1.969,2.584c0.436,1.034,0.761,2.424,0.977,4.173
		c0,2.369,0,5.479,0,9.254h-47.645l10.273-8.182C145.957,6.75,152.33,3.41,156.81,3.41h0.797V2.018h-32.478V3.41h1.31
		c2.913,0,5.222,0.59,6.917,1.769c1.695,1.176,2.543,2.763,2.543,4.752c0,1.218-0.298,2.284-0.893,3.198
		c-0.596,0.918-1.769,2.105-3.519,3.562l-6.145,4.92h-20.176v-8.021c0-3.417,0.847-5.969,2.542-7.653
		c1.695-1.683,4.215-2.523,7.554-2.523h1.63V2.018H81.748V3.41h1.631c3.417,0,5.968,0.842,7.654,2.523
		c1.681,1.681,2.524,4.232,2.524,7.653v8.021H70.531c-0.224-0.643-0.469-1.283-0.748-1.919c-1.457-3.327-3.528-6.34-6.202-9.044
		c-3.18-3.181-6.927-5.599-11.233-7.256c-4.305-1.657-9.056-2.482-14.25-2.482c-5.882,0-11.343,1.305-16.377,3.916
		C16.687,7.434,12.67,10.968,9.674,15.42c-1.341,1.991-2.368,4.056-3.109,6.188H0.717v1.627h5.329c0,0.002-0.001,0.002-0.001,0.004
		h13.844c0-0.002,0-0.002,0.001-0.004h37.585h13.573h22.509h11.609h18.145h4.164h47.586h11.727h30h11.727h34.328
		c0,0.002,0,0.002,0,0.004h13.131c0-0.002-0.002-0.002-0.002-0.004h13.329c-0.002,0.002-0.002,0.002-0.002,0.004h13.845
		c0-0.002,0-0.002,0-0.004h37.584h13.574h22.512h11.607h18.139h4.166h47.59h11.729h16.802V21.61H470.042z M20.164,21.61
		c0.05-0.279,0.09-0.572,0.145-0.848c0.568-2.822,1.416-5.38,2.543-7.673c1.126-2.292,2.483-4.274,4.077-5.941
		c1.456-1.534,3.252-2.722,5.387-3.56c2.135-0.835,4.407-1.252,6.816-1.252c1.351,0,2.758,0.227,4.215,0.679
		c1.456,0.449,2.744,1.05,3.857,1.785c2.253,1.408,4.173,3.31,5.762,5.705c1.59,2.4,2.808,5.212,3.656,8.445
		c0.226,0.867,0.41,1.758,0.575,2.658L20.164,21.61L20.164,21.61z M228.514,21.61V3.492h0.01h10.018
		c2.996,0,5.562,0.175,7.691,0.518c2.136,0.345,4.013,0.907,5.644,1.689c1.631,0.783,3.091,1.811,4.392,3.083
		c1.563,1.563,2.866,3.382,3.896,5.448c1.036,2.065,1.825,4.456,2.362,7.173c0.014,0.067,0.023,0.139,0.037,0.206L228.514,21.61
		L228.514,21.61z M303.419,21.61c0.049-0.279,0.087-0.572,0.145-0.848c0.567-2.822,1.416-5.38,2.541-7.673
		c1.129-2.292,2.482-4.274,4.078-5.941c1.457-1.534,3.254-2.722,5.387-3.56c2.137-0.835,4.406-1.252,6.818-1.252
		c1.35,0,2.756,0.227,4.211,0.679c1.459,0.449,2.744,1.05,3.859,1.785c2.252,1.408,4.173,3.31,5.762,5.705
		c1.592,2.4,2.809,5.212,3.657,8.445c0.228,0.867,0.41,1.758,0.574,2.658L303.419,21.61L303.419,21.61z"/>
	<path fill="#B68D40" d="M161.144,34.041c-0.394,0-0.743-0.086-1.048-0.257c-0.305-0.171-0.558-0.387-0.758-0.646
		c-0.202-0.251-0.366-0.535-0.492-0.856c-0.128-0.32-0.214-0.63-0.263-0.929h-0.511l-0.631,3.056h0.505l0.513-0.417
		c0.355,0.2,0.772,0.36,1.248,0.476c0.473,0.116,0.945,0.176,1.414,0.176c0.591,0,1.132-0.078,1.624-0.229
		c0.493-0.153,0.924-0.374,1.294-0.66c0.349-0.27,0.621-0.592,0.814-0.966c0.196-0.373,0.292-0.771,0.292-1.197
		c0-0.449-0.132-0.84-0.397-1.168c-0.267-0.327-0.631-0.587-1.09-0.777c-0.247-0.104-0.505-0.202-0.774-0.303
		c-0.271-0.097-0.528-0.19-0.774-0.282c-0.421-0.158-0.73-0.347-0.924-0.562c-0.196-0.214-0.292-0.465-0.292-0.751
		c0-0.41,0.162-0.751,0.486-1.021c0.324-0.271,0.728-0.406,1.212-0.406c0.349,0,0.648,0.07,0.896,0.207
		c0.248,0.137,0.454,0.321,0.623,0.553c0.17,0.238,0.303,0.506,0.402,0.805c0.097,0.299,0.17,0.618,0.223,0.954h0.511l0.621-2.882
		h-0.52l-0.446,0.357c-0.214-0.122-0.547-0.252-0.999-0.387c-0.455-0.136-0.911-0.203-1.37-0.203c-0.553,0-1.061,0.08-1.523,0.241
		c-0.461,0.162-0.85,0.375-1.164,0.644c-0.322,0.27-0.568,0.576-0.739,0.922c-0.17,0.342-0.256,0.702-0.256,1.074
		c0,0.406,0.118,0.789,0.351,1.146c0.236,0.361,0.585,0.641,1.05,0.833c0.233,0.102,0.479,0.195,0.741,0.29
		c0.259,0.093,0.528,0.189,0.806,0.288c0.438,0.16,0.753,0.353,0.951,0.573c0.196,0.223,0.294,0.48,0.294,0.776
		c0,0.455-0.172,0.825-0.518,1.105C162.18,33.899,161.721,34.041,161.144,34.041z"/>
	<path fill="#B68D40" d="M167.976,26.822l-0.431,1.804h-1.111l-0.143,0.614h1.09l-0.739,3.169c-0.044,0.206-0.076,0.377-0.097,0.507
		c-0.019,0.131-0.029,0.271-0.029,0.417c0,0.357,0.143,0.652,0.429,0.884c0.286,0.233,0.667,0.35,1.145,0.35
		c0.289,0,0.61-0.044,0.962-0.13c0.351-0.089,0.701-0.208,1.05-0.364l0.132-0.536c-0.088,0.031-0.24,0.071-0.457,0.119
		c-0.217,0.047-0.385,0.072-0.509,0.072c-0.256,0-0.448-0.045-0.574-0.134c-0.124-0.086-0.188-0.243-0.188-0.47
		c0-0.048,0.013-0.15,0.038-0.309c0.027-0.16,0.053-0.295,0.082-0.406l0.726-3.169h1.607l0.143-0.614h-1.616l0.418-1.804H167.976z"
		/>
	<path fill="#B68D40" d="M177.386,32.212l0.877-3.663l-0.084-0.097l-1.827,0.377c-0.17-0.144-0.391-0.257-0.659-0.339
		c-0.269-0.084-0.581-0.126-0.938-0.126c-0.49,0-0.953,0.104-1.395,0.311c-0.442,0.212-0.827,0.493-1.155,0.852
		c-0.326,0.358-0.587,0.778-0.78,1.254c-0.196,0.478-0.292,0.987-0.292,1.53c0,0.707,0.174,1.262,0.524,1.668
		c0.349,0.407,0.869,0.609,1.561,0.609c0.223,0,0.425-0.026,0.61-0.086c0.185-0.057,0.362-0.129,0.528-0.215
		c0.191-0.099,0.349-0.198,0.473-0.297s0.257-0.206,0.396-0.326h0.048c0.095,0.255,0.265,0.463,0.509,0.623
		c0.244,0.162,0.57,0.242,0.979,0.242c0.31,0,0.583-0.042,0.819-0.122c0.235-0.082,0.551-0.2,0.942-0.355l0.133-0.534
		c-0.065,0.026-0.175,0.063-0.333,0.106c-0.156,0.042-0.291,0.065-0.402,0.065c-0.252,0-0.432-0.042-0.535-0.128
		c-0.103-0.087-0.156-0.242-0.156-0.469c0-0.097,0.019-0.234,0.055-0.421C177.321,32.489,177.355,32.334,177.386,32.212z
		 M175.221,33.117c-0.147,0.16-0.307,0.292-0.48,0.402c-0.172,0.108-0.354,0.164-0.541,0.164c-0.183,0-0.335-0.034-0.457-0.103
		c-0.12-0.066-0.217-0.162-0.289-0.286c-0.067-0.112-0.118-0.255-0.147-0.423c-0.029-0.166-0.044-0.345-0.044-0.541
		c0-0.427,0.048-0.848,0.143-1.258c0.095-0.41,0.227-0.771,0.394-1.08c0.17-0.313,0.366-0.563,0.587-0.751
		c0.221-0.188,0.463-0.284,0.724-0.284c0.172,0,0.315,0.027,0.429,0.082c0.116,0.053,0.208,0.131,0.28,0.234
		c0.061,0.082,0.103,0.183,0.126,0.303s0.036,0.221,0.036,0.311L175.221,33.117z"/>
	<path fill="#B68D40" d="M180.932,26.828l-1.496,6.42c0.189,0.294,0.411,0.532,0.663,0.715c0.252,0.185,0.522,0.324,0.808,0.423
		c0.225,0.08,0.481,0.136,0.768,0.166c0.286,0.032,0.503,0.05,0.648,0.05c0.608,0,1.159-0.102,1.656-0.306
		c0.497-0.202,0.926-0.487,1.288-0.855c0.341-0.351,0.602-0.77,0.785-1.255c0.183-0.485,0.273-0.999,0.273-1.54
		c0-0.707-0.172-1.264-0.52-1.671c-0.347-0.405-0.867-0.609-1.557-0.609c-0.179,0-0.379,0.029-0.6,0.092
		c-0.219,0.063-0.398,0.129-0.533,0.2c-0.179,0.095-0.322,0.181-0.429,0.259c-0.107,0.076-0.206,0.153-0.296,0.229h-0.042l0.9-3.861
		l-0.067-0.092l-3.14,0.151l-0.107,0.44c0.164,0.017,0.307,0.038,0.433,0.063c0.125,0.021,0.234,0.059,0.324,0.106
		c0.093,0.05,0.162,0.121,0.212,0.207c0.051,0.087,0.074,0.196,0.074,0.326c0,0.043-0.004,0.091-0.01,0.152
		C180.959,26.698,180.947,26.76,180.932,26.828z M182.195,29.835c0.141-0.148,0.305-0.281,0.488-0.396
		c0.181-0.114,0.375-0.171,0.577-0.171c0.183,0,0.334,0.033,0.454,0.101c0.122,0.067,0.219,0.165,0.291,0.287
		c0.072,0.119,0.12,0.261,0.147,0.425c0.029,0.166,0.042,0.345,0.042,0.541c0,0.474-0.044,0.902-0.13,1.289
		c-0.088,0.388-0.219,0.756-0.394,1.105c-0.158,0.325-0.355,0.589-0.591,0.789c-0.238,0.198-0.49,0.301-0.76,0.301
		c-0.179,0-0.315-0.029-0.41-0.091c-0.097-0.06-0.183-0.144-0.263-0.256c-0.078-0.106-0.132-0.21-0.16-0.309
		c-0.027-0.102-0.042-0.198-0.042-0.293L182.195,29.835z"/>
	<path fill="#B68D40" d="M188.84,26.828l-1.288,5.593c-0.032,0.147-0.059,0.3-0.086,0.459c-0.025,0.157-0.038,0.312-0.038,0.458
		c0,0.358,0.137,0.652,0.411,0.885c0.274,0.231,0.65,0.35,1.125,0.35c0.318,0,0.602-0.042,0.853-0.122
		c0.25-0.082,0.572-0.2,0.963-0.354l0.133-0.537c-0.072,0.033-0.191,0.068-0.362,0.111c-0.171,0.042-0.305,0.063-0.404,0.063
		c-0.263,0-0.455-0.042-0.568-0.126c-0.116-0.082-0.173-0.24-0.173-0.47c0-0.093,0.019-0.233,0.057-0.424s0.071-0.345,0.099-0.458
		l1.602-6.972l-0.065-0.092l-3.146,0.151l-0.107,0.44c0.162,0.017,0.305,0.034,0.429,0.055c0.122,0.021,0.231,0.056,0.326,0.107
		c0.097,0.052,0.168,0.12,0.214,0.202c0.048,0.084,0.072,0.194,0.072,0.338c0,0.043-0.004,0.091-0.011,0.152
		C188.867,26.698,188.854,26.76,188.84,26.828z"/>
	<path fill="#B68D40" d="M195.777,31.533c0.553-0.152,0.989-0.381,1.311-0.695c0.322-0.311,0.482-0.684,0.482-1.114
		c0-0.454-0.186-0.793-0.556-1.019c-0.373-0.228-0.913-0.341-1.625-0.341c-0.604,0-1.155,0.104-1.656,0.315
		c-0.499,0.21-0.914,0.482-1.237,0.819c-0.345,0.354-0.606,0.753-0.781,1.193c-0.175,0.44-0.263,0.896-0.263,1.363
		c0,0.369,0.059,0.707,0.173,1.012c0.116,0.308,0.288,0.575,0.52,0.807c0.233,0.229,0.53,0.408,0.89,0.538
		c0.36,0.129,0.776,0.194,1.254,0.194c0.615,0,1.202-0.154,1.759-0.457c0.557-0.303,1.016-0.709,1.372-1.219l-0.434-0.361
		c-0.299,0.392-0.61,0.68-0.938,0.86c-0.328,0.18-0.726,0.27-1.193,0.27c-0.271,0-0.493-0.053-0.667-0.158
		c-0.174-0.104-0.311-0.246-0.406-0.425c-0.08-0.155-0.139-0.341-0.179-0.56c-0.04-0.22-0.063-0.415-0.071-0.59
		c0.446-0.049,0.821-0.1,1.13-0.155C194.969,31.758,195.342,31.663,195.777,31.533z M193.551,31.481
		c0.076-0.766,0.248-1.396,0.52-1.893c0.273-0.499,0.562-0.75,0.867-0.75c0.219,0,0.389,0.094,0.513,0.274
		c0.122,0.179,0.183,0.438,0.183,0.774c0,0.343-0.065,0.615-0.196,0.823c-0.13,0.206-0.345,0.375-0.644,0.505
		c-0.135,0.061-0.318,0.112-0.547,0.156C194.016,31.417,193.784,31.45,193.551,31.481z"/>
	<path fill="#B68D40" d="M200.238,34.165c-0.027-0.099-0.076-0.253-0.143-0.459c-0.067-0.206-0.149-0.394-0.25-0.564
		c-0.107-0.187-0.24-0.342-0.402-0.463c-0.16-0.124-0.36-0.187-0.598-0.187c-0.286,0-0.516,0.086-0.688,0.259
		c-0.172,0.173-0.259,0.375-0.259,0.604c0,0.129,0.036,0.264,0.107,0.408c0.071,0.146,0.204,0.281,0.397,0.407
		c0.191,0.127,0.45,0.232,0.779,0.314c0.328,0.079,0.741,0.122,1.241,0.122c0.551,0,1.006-0.049,1.364-0.147
		c0.357-0.097,0.673-0.239,0.947-0.432c0.246-0.175,0.436-0.395,0.57-0.654c0.132-0.263,0.198-0.537,0.198-0.823
		c0-0.436-0.137-0.785-0.411-1.054c-0.273-0.266-0.682-0.494-1.22-0.684c-0.236-0.08-0.429-0.152-0.587-0.213
		c-0.158-0.063-0.286-0.128-0.39-0.2c-0.092-0.063-0.164-0.144-0.219-0.237c-0.052-0.095-0.08-0.226-0.08-0.394
		c0-0.275,0.113-0.505,0.343-0.692c0.227-0.186,0.482-0.286,0.76-0.301c0.036,0.118,0.08,0.268,0.137,0.442
		c0.055,0.181,0.13,0.353,0.225,0.52c0.097,0.161,0.221,0.305,0.373,0.423c0.153,0.122,0.345,0.181,0.574,0.181
		c0.267,0,0.482-0.079,0.648-0.234c0.165-0.156,0.247-0.347,0.247-0.564c0-0.217-0.059-0.403-0.177-0.556
		c-0.116-0.151-0.28-0.277-0.491-0.372c-0.223-0.095-0.463-0.162-0.722-0.195c-0.256-0.038-0.536-0.055-0.839-0.055
		c-0.503,0-0.945,0.055-1.321,0.164c-0.377,0.109-0.688,0.254-0.935,0.438c-0.25,0.189-0.436,0.397-0.551,0.623
		c-0.118,0.224-0.177,0.464-0.177,0.718c0,0.428,0.141,0.786,0.421,1.074c0.28,0.289,0.661,0.515,1.141,0.677
		c0.174,0.062,0.351,0.124,0.53,0.19c0.179,0.067,0.326,0.138,0.439,0.208c0.116,0.076,0.208,0.162,0.278,0.262
		c0.069,0.102,0.103,0.224,0.103,0.37c0,0.332-0.113,0.597-0.345,0.789C201.027,34.069,200.686,34.165,200.238,34.165z"/>
	<path fill="#B68D40" d="M205.551,35.554c-0.187,0.181-0.366,0.321-0.537,0.423c-0.17,0.099-0.376,0.209-0.619,0.326l0.191,0.423
		c0.722-0.306,1.334-0.744,1.839-1.319c0.505-0.572,0.757-1.168,0.757-1.782c0-0.366-0.092-0.662-0.275-0.894
		c-0.181-0.229-0.467-0.347-0.856-0.347c-0.326,0-0.612,0.122-0.861,0.366c-0.248,0.244-0.373,0.521-0.373,0.831
		c0,0.257,0.086,0.461,0.261,0.608c0.175,0.146,0.448,0.219,0.816,0.219h0.352c-0.063,0.242-0.156,0.457-0.276,0.642
		C205.85,35.235,205.711,35.403,205.551,35.554z"/>
	<path fill="#B68D40" d="M214.687,34.041c-0.393,0-0.743-0.086-1.05-0.257c-0.305-0.171-0.558-0.387-0.755-0.646
		c-0.202-0.251-0.368-0.535-0.495-0.856c-0.126-0.32-0.214-0.63-0.263-0.929h-0.512l-0.631,3.056h0.507L212,33.992
		c0.358,0.2,0.774,0.36,1.248,0.476c0.473,0.116,0.947,0.176,1.414,0.176c0.591,0,1.134-0.078,1.626-0.229
		c0.492-0.153,0.924-0.374,1.292-0.66c0.349-0.27,0.621-0.592,0.816-0.966c0.193-0.373,0.292-0.771,0.292-1.197
		c0-0.449-0.135-0.84-0.4-1.168c-0.265-0.327-0.629-0.587-1.09-0.777c-0.246-0.104-0.505-0.202-0.774-0.303
		c-0.27-0.097-0.528-0.19-0.774-0.282c-0.421-0.158-0.728-0.347-0.924-0.562c-0.193-0.214-0.29-0.465-0.29-0.751
		c0-0.41,0.162-0.751,0.484-1.021c0.324-0.271,0.728-0.406,1.212-0.406c0.349,0,0.648,0.07,0.896,0.207
		c0.248,0.137,0.457,0.321,0.623,0.553c0.17,0.238,0.305,0.506,0.402,0.805c0.097,0.299,0.173,0.618,0.223,0.954h0.514l0.619-2.882
		h-0.518l-0.446,0.357c-0.215-0.122-0.549-0.252-1.001-0.387c-0.453-0.136-0.909-0.203-1.37-0.203c-0.551,0-1.058,0.08-1.521,0.241
		c-0.463,0.162-0.85,0.375-1.164,0.644c-0.322,0.27-0.568,0.576-0.739,0.922c-0.172,0.342-0.257,0.702-0.257,1.074
		c0,0.406,0.116,0.789,0.352,1.146c0.233,0.361,0.583,0.641,1.048,0.833c0.233,0.102,0.482,0.195,0.741,0.29
		c0.261,0.093,0.53,0.189,0.808,0.288c0.436,0.16,0.753,0.353,0.949,0.573c0.198,0.223,0.295,0.48,0.295,0.776
		c0,0.455-0.173,0.825-0.518,1.105C215.723,33.901,215.262,34.041,214.687,34.041z"/>
	<path fill="#B68D40" d="M221.425,35.731l0.362-1.589c0.17,0.135,0.373,0.239,0.604,0.312c0.233,0.074,0.539,0.111,0.922,0.111
		c0.507,0,0.972-0.1,1.393-0.299c0.421-0.197,0.8-0.479,1.137-0.847c0.326-0.354,0.583-0.77,0.772-1.252
		c0.188-0.482,0.282-0.991,0.282-1.522c0-0.707-0.173-1.264-0.52-1.671c-0.347-0.405-0.865-0.609-1.553-0.609
		c-0.318,0-0.648,0.075-0.993,0.227c-0.343,0.151-0.699,0.384-1.063,0.703h-0.048c-0.046-0.11-0.105-0.221-0.174-0.328
		c-0.072-0.106-0.16-0.197-0.268-0.272c-0.126-0.093-0.273-0.158-0.442-0.2c-0.166-0.042-0.359-0.063-0.579-0.063
		c-0.263,0-0.542,0.049-0.837,0.142c-0.294,0.093-0.604,0.206-0.926,0.336l-0.13,0.535c0.09-0.034,0.206-0.072,0.345-0.114
		c0.141-0.037,0.269-0.059,0.389-0.059c0.259,0,0.431,0.046,0.52,0.141c0.086,0.095,0.131,0.247,0.131,0.457
		c0,0.113-0.019,0.261-0.057,0.439s-0.067,0.325-0.092,0.441l-1.183,5.197c-0.032,0.16-0.082,0.286-0.154,0.379
		c-0.071,0.093-0.175,0.162-0.312,0.206c-0.078,0.023-0.195,0.046-0.351,0.067c-0.154,0.022-0.284,0.038-0.387,0.046l-0.095,0.41
		h4.303l0.095-0.41c-0.126-0.008-0.288-0.031-0.481-0.069c-0.194-0.038-0.335-0.075-0.423-0.115
		c-0.08-0.036-0.139-0.093-0.179-0.169c-0.04-0.075-0.059-0.157-0.059-0.25c0-0.026,0.006-0.074,0.017-0.142
		C221.402,35.834,221.415,35.778,221.425,35.731z M222.767,29.835c0.095-0.116,0.244-0.237,0.446-0.368
		c0.202-0.131,0.408-0.197,0.619-0.197c0.181,0,0.333,0.034,0.455,0.101c0.12,0.067,0.217,0.165,0.288,0.287
		c0.069,0.119,0.12,0.261,0.147,0.425c0.027,0.166,0.042,0.345,0.042,0.541c0,0.474-0.044,0.898-0.13,1.281
		c-0.088,0.381-0.217,0.742-0.387,1.09c-0.162,0.328-0.358,0.589-0.585,0.778c-0.229,0.19-0.465,0.286-0.711,0.286
		c-0.296,0-0.524-0.092-0.684-0.271c-0.158-0.179-0.238-0.406-0.238-0.682L222.767,29.835z"/>
	<path fill="#B68D40" d="M232.218,34.306c0.507-0.197,0.949-0.477,1.326-0.838c0.349-0.337,0.619-0.733,0.81-1.19
		c0.191-0.456,0.286-0.935,0.286-1.436c0-0.782-0.259-1.394-0.778-1.833c-0.518-0.438-1.225-0.657-2.124-0.657
		c-0.591,0-1.14,0.097-1.649,0.29c-0.507,0.192-0.937,0.454-1.286,0.782c-0.354,0.337-0.629,0.731-0.825,1.186
		s-0.295,0.944-0.295,1.473c0,0.776,0.259,1.392,0.781,1.843c0.52,0.45,1.202,0.677,2.047,0.677
		C231.142,34.601,231.713,34.502,232.218,34.306z M229.779,32.766c0-0.361,0.03-0.771,0.091-1.229
		c0.059-0.459,0.158-0.886,0.296-1.279c0.16-0.472,0.366-0.828,0.621-1.072c0.252-0.246,0.532-0.368,0.839-0.368
		c0.297,0,0.524,0.108,0.682,0.328c0.156,0.217,0.236,0.56,0.236,1.023c0,0.417-0.036,0.856-0.107,1.319s-0.177,0.884-0.315,1.265
		c-0.139,0.391-0.329,0.719-0.566,0.982c-0.24,0.268-0.521,0.399-0.846,0.399c-0.303,0-0.532-0.106-0.692-0.323
		C229.859,33.595,229.779,33.245,229.779,32.766z"/>
	<path fill="#B68D40" d="M239.456,30.235c0,0.184,0.086,0.348,0.257,0.494c0.17,0.146,0.406,0.22,0.703,0.22
		c0.231,0,0.408-0.032,0.537-0.098c0.126-0.067,0.249-0.166,0.364-0.302c0.103-0.119,0.179-0.263,0.231-0.429
		c0.05-0.167,0.078-0.339,0.078-0.518c0-0.402-0.099-0.709-0.292-0.92c-0.196-0.216-0.461-0.319-0.799-0.319
		c-0.313,0-0.608,0.084-0.882,0.248c-0.276,0.164-0.608,0.454-1.004,0.871h-0.04c-0.076-0.333-0.229-0.594-0.463-0.776
		c-0.231-0.186-0.581-0.277-1.048-0.277c-0.263,0-0.541,0.049-0.833,0.142c-0.294,0.093-0.602,0.206-0.922,0.336l-0.132,0.535
		c0.097-0.034,0.21-0.072,0.343-0.114c0.133-0.037,0.263-0.059,0.392-0.059c0.252,0,0.425,0.042,0.513,0.126
		c0.091,0.085,0.135,0.239,0.135,0.472c0,0.118-0.019,0.265-0.057,0.446c-0.038,0.177-0.067,0.324-0.093,0.434l-0.82,3.663h1.965
		l0.941-4.217c0.174-0.206,0.36-0.39,0.551-0.552c0.191-0.159,0.421-0.296,0.688-0.405c-0.107,0.248-0.188,0.436-0.236,0.56
		C239.481,29.917,239.456,30.065,239.456,30.235z"/>
	<path fill="#B68D40" d="M243.864,26.822l-0.429,1.804h-1.113l-0.143,0.614h1.09l-0.739,3.169c-0.044,0.206-0.076,0.377-0.095,0.507
		c-0.019,0.131-0.029,0.271-0.029,0.417c0,0.357,0.143,0.652,0.429,0.884c0.284,0.233,0.667,0.35,1.143,0.35
		c0.29,0,0.609-0.044,0.96-0.13c0.353-0.089,0.703-0.208,1.054-0.364l0.13-0.536c-0.086,0.031-0.239,0.071-0.454,0.119
		c-0.217,0.047-0.388,0.072-0.51,0.072c-0.259,0-0.45-0.045-0.574-0.134c-0.126-0.086-0.188-0.243-0.188-0.47
		c0-0.048,0.014-0.15,0.039-0.309c0.024-0.16,0.053-0.295,0.08-0.406l0.725-3.169h1.609l0.143-0.614h-1.616l0.419-1.804H243.864z"/>
	<path fill="#B68D40" d="M256.372,32.212l0.877-3.663l-0.082-0.097l-1.828,0.377c-0.171-0.144-0.39-0.257-0.658-0.339
		c-0.268-0.084-0.58-0.126-0.938-0.126c-0.488,0-0.953,0.104-1.396,0.311c-0.439,0.212-0.824,0.493-1.154,0.852
		c-0.326,0.358-0.586,0.778-0.781,1.254c-0.195,0.478-0.292,0.987-0.292,1.53c0,0.707,0.175,1.262,0.522,1.668
		c0.353,0.407,0.871,0.609,1.563,0.609c0.225,0,0.428-0.026,0.611-0.086c0.187-0.057,0.36-0.129,0.526-0.215
		c0.191-0.099,0.351-0.198,0.476-0.297s0.258-0.206,0.396-0.326h0.049c0.094,0.255,0.264,0.463,0.508,0.623
		c0.244,0.162,0.569,0.242,0.979,0.242c0.31,0,0.581-0.042,0.817-0.122c0.235-0.082,0.55-0.2,0.942-0.355l0.132-0.534
		c-0.063,0.026-0.174,0.063-0.33,0.106c-0.158,0.042-0.291,0.065-0.402,0.065c-0.256,0-0.434-0.042-0.536-0.128
		c-0.104-0.087-0.154-0.242-0.154-0.469c0-0.097,0.019-0.234,0.054-0.421C256.306,32.489,256.34,32.334,256.372,32.212z
		 M254.209,33.117c-0.147,0.16-0.31,0.292-0.481,0.402c-0.172,0.108-0.354,0.164-0.539,0.164c-0.184,0-0.336-0.034-0.457-0.103
		c-0.121-0.066-0.219-0.162-0.289-0.286c-0.067-0.112-0.116-0.255-0.146-0.423c-0.029-0.166-0.044-0.345-0.044-0.541
		c0-0.427,0.046-0.848,0.144-1.258c0.095-0.41,0.226-0.771,0.394-1.08c0.171-0.313,0.366-0.563,0.587-0.751
		c0.219-0.188,0.461-0.284,0.725-0.284c0.17,0,0.313,0.027,0.43,0.082c0.115,0.053,0.207,0.131,0.279,0.234
		c0.06,0.082,0.102,0.183,0.125,0.303c0.024,0.12,0.035,0.221,0.035,0.311L254.209,33.117z"/>
	<path fill="#B68D40" d="M264.763,32.194l0.452-1.675c0.054-0.187,0.084-0.362,0.099-0.526c0.014-0.164,0.021-0.292,0.021-0.383
		c0-0.345-0.124-0.64-0.373-0.884c-0.248-0.239-0.593-0.361-1.033-0.361c-0.469,0-0.908,0.099-1.324,0.294
		c-0.416,0.198-0.816,0.472-1.205,0.825h-0.041c-0.075-0.333-0.229-0.594-0.463-0.776c-0.231-0.186-0.584-0.277-1.053-0.277
		c-0.261,0-0.539,0.049-0.833,0.142c-0.295,0.093-0.603,0.206-0.924,0.336l-0.131,0.535c0.095-0.034,0.208-0.072,0.343-0.114
		c0.133-0.037,0.264-0.059,0.391-0.059c0.246,0,0.416,0.042,0.508,0.128c0.096,0.087,0.143,0.242,0.143,0.47
		c0,0.118-0.02,0.265-0.057,0.446c-0.038,0.177-0.067,0.324-0.094,0.434l-0.846,3.663h1.967l0.989-4.299
		c0.31-0.286,0.587-0.484,0.839-0.589c0.25-0.105,0.44-0.156,0.575-0.156c0.22,0,0.372,0.053,0.463,0.16
		c0.093,0.106,0.138,0.257,0.138,0.446c0,0.088-0.012,0.198-0.031,0.336c-0.021,0.14-0.055,0.291-0.1,0.464l-0.432,1.584
		c-0.057,0.221-0.091,0.408-0.1,0.556c-0.01,0.149-0.016,0.271-0.016,0.366c0,0.352,0.131,0.644,0.395,0.879
		c0.261,0.236,0.63,0.354,1.103,0.354c0.312,0,0.583-0.04,0.819-0.122c0.232-0.079,0.549-0.197,0.941-0.354l0.131-0.536
		c-0.067,0.031-0.178,0.069-0.328,0.111c-0.149,0.04-0.286,0.062-0.403,0.062c-0.255,0-0.433-0.042-0.535-0.124
		c-0.101-0.085-0.151-0.239-0.151-0.472c0-0.091,0.018-0.226,0.049-0.404C264.687,32.492,264.724,32.332,264.763,32.194z"/>
	<path fill="#B68D40" d="M272.151,26.852l-0.44,1.936c-0.164-0.129-0.368-0.229-0.614-0.306c-0.246-0.08-0.551-0.117-0.916-0.117
		c-0.484,0-0.947,0.104-1.39,0.311c-0.442,0.212-0.823,0.493-1.146,0.852c-0.326,0.358-0.582,0.778-0.773,1.254
		c-0.189,0.478-0.286,0.987-0.286,1.53c0,0.707,0.174,1.262,0.524,1.668c0.351,0.408,0.869,0.609,1.563,0.609
		c0.23,0,0.436-0.026,0.612-0.08c0.176-0.053,0.356-0.126,0.545-0.221c0.2-0.099,0.362-0.198,0.487-0.297
		c0.129-0.099,0.262-0.206,0.399-0.326h0.05c0.094,0.255,0.265,0.463,0.508,0.623c0.244,0.162,0.568,0.242,0.978,0.242
		c0.31,0,0.581-0.042,0.815-0.122c0.233-0.082,0.548-0.2,0.938-0.354l0.132-0.535c-0.063,0.026-0.174,0.063-0.332,0.106
		c-0.154,0.042-0.289,0.065-0.4,0.065c-0.256,0-0.432-0.042-0.532-0.128c-0.103-0.087-0.151-0.242-0.151-0.469
		c0-0.097,0.02-0.236,0.055-0.427c0.037-0.188,0.072-0.339,0.1-0.455l1.602-6.929l-0.064-0.092l-3.337,0.151l-0.107,0.44
		c0.171,0.021,0.328,0.042,0.472,0.067c0.144,0.022,0.27,0.061,0.381,0.112c0.119,0.052,0.213,0.122,0.279,0.216
		c0.067,0.088,0.102,0.201,0.102,0.331c0,0.038-0.004,0.094-0.016,0.158C272.176,26.733,272.164,26.797,272.151,26.852z
		 M270.71,33.117c-0.146,0.16-0.313,0.292-0.499,0.402c-0.183,0.108-0.37,0.164-0.558,0.164c-0.184,0-0.336-0.034-0.454-0.103
		c-0.122-0.066-0.22-0.162-0.291-0.286c-0.067-0.112-0.115-0.255-0.146-0.423c-0.029-0.166-0.045-0.345-0.045-0.541
		c0-0.438,0.047-0.866,0.143-1.281c0.097-0.414,0.223-0.771,0.383-1.074c0.17-0.324,0.365-0.581,0.587-0.771
		c0.219-0.187,0.457-0.281,0.711-0.281c0.188,0,0.341,0.029,0.453,0.086c0.11,0.058,0.204,0.138,0.278,0.235
		c0.076,0.095,0.127,0.196,0.151,0.301c0.027,0.105,0.04,0.207,0.04,0.307L270.71,33.117z"/>
	<path fill="#B68D40" d="M278.104,28.376h0.459c0.092-0.154,0.201-0.322,0.33-0.505c0.129-0.181,0.293-0.381,0.491-0.602
		c0.166-0.182,0.339-0.347,0.515-0.496c0.178-0.152,0.338-0.236,0.48-0.258c0.193-0.019,0.368-0.033,0.52-0.041
		c0.154-0.015,0.306-0.019,0.457-0.019h0.23l-1.559,6.748c-0.031,0.147-0.09,0.276-0.166,0.384c-0.08,0.107-0.2,0.191-0.358,0.254
		c-0.092,0.032-0.243,0.063-0.458,0.085s-0.379,0.039-0.488,0.049l-0.102,0.434h4.712l0.101-0.434
		c-0.119-0.014-0.271-0.038-0.451-0.075c-0.185-0.038-0.322-0.076-0.42-0.116c-0.104-0.044-0.172-0.104-0.209-0.175
		c-0.039-0.073-0.059-0.157-0.059-0.255c0-0.027,0.006-0.071,0.016-0.132c0.011-0.063,0.022-0.127,0.039-0.194l1.519-6.571h0.299
		c0.136,0,0.295,0.007,0.479,0.021c0.184,0.01,0.334,0.024,0.455,0.039c0.134,0.024,0.25,0.104,0.349,0.239
		c0.097,0.136,0.188,0.307,0.271,0.515c0.08,0.196,0.144,0.397,0.188,0.6c0.044,0.204,0.075,0.373,0.091,0.507h0.458l0.562-2.419
		h-8.188L278.104,28.376z"/>
	<path fill="#B68D40" d="M290.142,30.235c0,0.184,0.084,0.348,0.256,0.494s0.404,0.22,0.703,0.22c0.229,0,0.408-0.032,0.534-0.098
		c0.13-0.067,0.248-0.166,0.364-0.302c0.104-0.119,0.182-0.263,0.23-0.429c0.054-0.167,0.078-0.339,0.078-0.518
		c0-0.402-0.097-0.709-0.293-0.92c-0.193-0.216-0.461-0.319-0.797-0.319c-0.316,0-0.609,0.084-0.884,0.248s-0.608,0.454-1.002,0.871
		h-0.042c-0.076-0.333-0.229-0.594-0.461-0.776c-0.23-0.186-0.583-0.277-1.051-0.277c-0.26,0-0.538,0.049-0.834,0.142
		c-0.291,0.093-0.6,0.206-0.92,0.336l-0.131,0.535c0.094-0.034,0.207-0.072,0.342-0.114c0.134-0.037,0.265-0.059,0.391-0.059
		c0.255,0,0.427,0.042,0.516,0.126c0.088,0.085,0.135,0.239,0.135,0.472c0,0.118-0.02,0.265-0.057,0.446
		c-0.037,0.177-0.068,0.324-0.093,0.434l-0.823,3.663h1.967l0.939-4.217c0.178-0.206,0.359-0.39,0.551-0.552
		c0.194-0.159,0.422-0.296,0.688-0.405c-0.107,0.248-0.187,0.436-0.235,0.56C290.167,29.917,290.142,30.065,290.142,30.235z"/>
	<path fill="#B68D40" d="M298.872,32.212l0.878-3.663l-0.082-0.097l-1.829,0.377c-0.17-0.144-0.389-0.257-0.658-0.339
		c-0.268-0.084-0.58-0.126-0.938-0.126c-0.488,0-0.953,0.104-1.396,0.311c-0.438,0.212-0.824,0.493-1.154,0.852
		c-0.326,0.358-0.586,0.778-0.78,1.254c-0.196,0.478-0.293,0.987-0.293,1.53c0,0.707,0.175,1.262,0.524,1.668
		c0.352,0.407,0.871,0.609,1.562,0.609c0.224,0,0.427-0.026,0.612-0.086c0.185-0.057,0.358-0.129,0.524-0.215
		c0.191-0.099,0.351-0.198,0.476-0.297s0.258-0.206,0.396-0.326h0.049c0.096,0.255,0.264,0.463,0.508,0.623
		c0.244,0.162,0.569,0.242,0.979,0.242c0.31,0,0.581-0.042,0.819-0.122c0.234-0.082,0.549-0.2,0.941-0.355l0.131-0.534
		c-0.063,0.026-0.172,0.063-0.33,0.106c-0.158,0.042-0.291,0.065-0.401,0.065c-0.255,0-0.435-0.042-0.537-0.128
		c-0.103-0.087-0.153-0.242-0.153-0.469c0-0.097,0.018-0.234,0.053-0.421C298.806,32.489,298.841,32.334,298.872,32.212z
		 M296.709,33.117c-0.147,0.16-0.31,0.292-0.481,0.402c-0.172,0.108-0.354,0.164-0.539,0.164c-0.183,0-0.336-0.034-0.455-0.103
		c-0.123-0.066-0.221-0.162-0.291-0.286c-0.067-0.112-0.115-0.255-0.146-0.423c-0.029-0.166-0.044-0.345-0.044-0.541
		c0-0.427,0.047-0.848,0.144-1.258c0.096-0.41,0.226-0.771,0.395-1.08c0.17-0.313,0.366-0.563,0.587-0.751
		c0.22-0.188,0.461-0.284,0.724-0.284c0.172,0,0.313,0.027,0.431,0.082c0.114,0.053,0.208,0.131,0.278,0.234
		c0.061,0.082,0.103,0.183,0.125,0.303c0.024,0.12,0.035,0.221,0.035,0.311L296.709,33.117z"/>
	<path fill="#B68D40" d="M306.237,26.852l-0.442,1.936c-0.162-0.129-0.366-0.229-0.612-0.306c-0.246-0.08-0.554-0.117-0.92-0.117
		c-0.482,0-0.945,0.104-1.386,0.311c-0.442,0.212-0.823,0.493-1.146,0.852c-0.326,0.358-0.586,0.778-0.774,1.254
		c-0.19,0.478-0.286,0.987-0.286,1.53c0,0.707,0.176,1.262,0.523,1.668c0.351,0.408,0.871,0.609,1.563,0.609
		c0.229,0,0.435-0.026,0.61-0.08c0.176-0.053,0.359-0.126,0.547-0.221c0.197-0.099,0.361-0.198,0.488-0.297
		c0.125-0.099,0.261-0.206,0.398-0.326h0.049c0.096,0.255,0.264,0.463,0.508,0.623c0.244,0.162,0.569,0.242,0.979,0.242
		c0.311,0,0.581-0.042,0.814-0.122c0.232-0.082,0.547-0.2,0.939-0.354l0.131-0.535c-0.063,0.026-0.175,0.063-0.33,0.106
		c-0.158,0.042-0.293,0.065-0.401,0.065c-0.255,0-0.435-0.042-0.535-0.128c-0.101-0.087-0.151-0.242-0.151-0.469
		c0-0.097,0.021-0.236,0.057-0.427c0.039-0.188,0.07-0.339,0.101-0.455l1.601-6.929l-0.063-0.092l-3.338,0.151l-0.106,0.44
		c0.17,0.021,0.325,0.042,0.469,0.067c0.144,0.022,0.271,0.061,0.381,0.112c0.121,0.052,0.214,0.122,0.281,0.216
		c0.068,0.088,0.103,0.201,0.103,0.331c0,0.038-0.006,0.094-0.017,0.158C306.26,26.736,306.249,26.797,306.237,26.852z
		 M304.796,33.117c-0.146,0.16-0.313,0.292-0.499,0.402c-0.187,0.108-0.37,0.164-0.558,0.164c-0.184,0-0.336-0.034-0.457-0.103
		c-0.119-0.066-0.217-0.162-0.288-0.286c-0.067-0.112-0.117-0.255-0.147-0.423c-0.029-0.166-0.044-0.345-0.044-0.541
		c0-0.438,0.05-0.866,0.144-1.281c0.096-0.414,0.224-0.771,0.382-1.074c0.17-0.324,0.366-0.581,0.587-0.771
		c0.221-0.187,0.458-0.281,0.711-0.281c0.191,0,0.343,0.029,0.454,0.086c0.11,0.058,0.204,0.138,0.28,0.235
		c0.072,0.095,0.125,0.196,0.15,0.301c0.025,0.105,0.038,0.207,0.038,0.307L304.796,33.117z"/>
	<path fill="#B68D40" d="M311.571,27.375c0.318,0,0.595-0.104,0.824-0.317c0.228-0.212,0.34-0.47,0.34-0.771
		c0-0.301-0.112-0.561-0.34-0.773c-0.229-0.216-0.506-0.319-0.824-0.319c-0.322,0-0.598,0.104-0.829,0.319
		c-0.229,0.214-0.347,0.474-0.347,0.773c0,0.303,0.117,0.561,0.347,0.771C310.974,27.27,311.249,27.375,311.571,27.375z"/>
	<path fill="#B68D40" d="M308.724,28.839l-0.133,0.539c0.098-0.038,0.21-0.074,0.346-0.112c0.133-0.042,0.263-0.063,0.39-0.063
		c0.259,0,0.437,0.045,0.524,0.133c0.094,0.086,0.137,0.24,0.137,0.463c0,0.122-0.014,0.262-0.043,0.408
		c-0.029,0.149-0.067,0.309-0.109,0.475l-0.492,1.739c-0.044,0.184-0.076,0.348-0.095,0.49c-0.021,0.146-0.029,0.288-0.029,0.427
		c0,0.358,0.13,0.652,0.396,0.885c0.263,0.23,0.633,0.35,1.11,0.35c0.31,0,0.58-0.042,0.813-0.122c0.235-0.082,0.55-0.2,0.942-0.354
		l0.131-0.537c-0.067,0.033-0.178,0.068-0.328,0.111c-0.149,0.042-0.284,0.063-0.404,0.063c-0.252,0-0.431-0.042-0.533-0.126
		c-0.104-0.082-0.156-0.24-0.156-0.47c0-0.093,0.018-0.228,0.049-0.405c0.031-0.181,0.066-0.337,0.107-0.477l0.489-1.735
		c0.049-0.156,0.08-0.332,0.099-0.521c0.019-0.19,0.025-0.324,0.025-0.399c0-0.366-0.128-0.66-0.383-0.891
		c-0.258-0.229-0.623-0.343-1.094-0.343c-0.265,0-0.541,0.046-0.836,0.139C309.353,28.598,309.046,28.709,308.724,28.839z"/>
	<path fill="#B68D40" d="M319.806,32.194l0.452-1.675c0.054-0.187,0.085-0.362,0.101-0.526c0.013-0.164,0.021-0.292,0.021-0.383
		c0-0.345-0.124-0.64-0.372-0.884c-0.248-0.239-0.594-0.361-1.033-0.361c-0.47,0-0.908,0.099-1.326,0.294
		c-0.414,0.198-0.815,0.472-1.203,0.825h-0.041c-0.076-0.333-0.229-0.594-0.463-0.776c-0.231-0.186-0.584-0.277-1.053-0.277
		c-0.262,0-0.539,0.049-0.834,0.142c-0.294,0.093-0.602,0.206-0.924,0.336L313,29.442c0.095-0.034,0.208-0.072,0.343-0.114
		c0.133-0.037,0.264-0.059,0.391-0.059c0.246,0,0.416,0.042,0.509,0.128c0.095,0.087,0.141,0.242,0.141,0.47
		c0,0.118-0.019,0.265-0.057,0.446c-0.038,0.177-0.067,0.324-0.093,0.434l-0.846,3.663h1.967l0.989-4.299
		c0.31-0.286,0.587-0.484,0.837-0.589c0.252-0.105,0.442-0.156,0.576-0.156c0.221,0,0.373,0.053,0.465,0.16
		c0.092,0.106,0.137,0.257,0.137,0.446c0,0.088-0.012,0.198-0.032,0.336c-0.021,0.14-0.056,0.291-0.099,0.464l-0.433,1.584
		c-0.058,0.221-0.09,0.408-0.099,0.556c-0.012,0.149-0.016,0.271-0.016,0.366c0,0.352,0.131,0.644,0.395,0.879
		c0.261,0.236,0.629,0.354,1.103,0.354c0.312,0,0.583-0.039,0.818-0.121c0.233-0.079,0.549-0.197,0.942-0.354l0.131-0.536
		c-0.067,0.031-0.178,0.069-0.328,0.111c-0.149,0.04-0.286,0.062-0.404,0.062c-0.255,0-0.432-0.042-0.534-0.124
		c-0.102-0.085-0.151-0.239-0.151-0.472c0-0.091,0.018-0.226,0.049-0.404C319.731,32.492,319.767,32.332,319.806,32.194z"/>
	<path fill="#B68D40" d="M324.853,36.013c-0.168,0.196-0.342,0.332-0.521,0.403c-0.182,0.071-0.362,0.124-0.545,0.155
		c-0.053-0.12-0.127-0.275-0.229-0.467c-0.099-0.194-0.205-0.364-0.32-0.51c-0.127-0.164-0.274-0.304-0.442-0.42
		c-0.171-0.112-0.362-0.172-0.577-0.172c-0.283,0-0.509,0.09-0.669,0.271c-0.159,0.181-0.241,0.385-0.241,0.609
		c0,0.131,0.029,0.266,0.086,0.401c0.06,0.137,0.166,0.261,0.326,0.372c0.162,0.116,0.397,0.211,0.705,0.284
		c0.307,0.074,0.707,0.108,1.194,0.108c0.457,0,0.893-0.055,1.308-0.163c0.414-0.109,0.813-0.306,1.192-0.588
		c0.375-0.276,0.7-0.651,0.981-1.12c0.282-0.473,0.504-1.067,0.664-1.791l1.014-4.843l-0.082-0.097l-1.819,0.377
		c-0.198-0.158-0.437-0.276-0.709-0.352c-0.272-0.076-0.59-0.113-0.947-0.113c-0.487,0-0.95,0.103-1.391,0.311
		c-0.438,0.207-0.818,0.484-1.142,0.838c-0.326,0.362-0.582,0.778-0.773,1.25c-0.189,0.47-0.286,0.973-0.286,1.51
		c0,0.707,0.187,1.263,0.558,1.668c0.371,0.403,0.902,0.605,1.594,0.605c0.242,0,0.443-0.022,0.602-0.066
		c0.16-0.046,0.331-0.111,0.514-0.2c0.149-0.067,0.291-0.146,0.424-0.237c0.131-0.093,0.246-0.177,0.346-0.257h0.046
		c-0.122,0.619-0.257,1.099-0.401,1.436C325.162,35.558,325.01,35.822,324.853,36.013z M325.358,33.462
		c-0.203,0.12-0.402,0.181-0.598,0.181c-0.166,0-0.316-0.032-0.449-0.096c-0.133-0.063-0.24-0.159-0.324-0.286
		s-0.141-0.271-0.174-0.432c-0.035-0.162-0.051-0.337-0.051-0.528c0-0.432,0.045-0.853,0.143-1.259
		c0.095-0.408,0.224-0.764,0.388-1.069c0.166-0.311,0.358-0.557,0.576-0.741c0.219-0.186,0.459-0.277,0.716-0.277
		c0.191,0,0.344,0.029,0.454,0.088c0.112,0.056,0.204,0.135,0.28,0.234c0.074,0.094,0.125,0.195,0.15,0.301
		c0.025,0.104,0.041,0.206,0.041,0.307l-0.658,3.198C325.728,33.216,325.563,33.345,325.358,33.462z"/>
</g>
</svg>
