<?xml version="1.0" encoding="utf-8"?>
<!-- Generator: Adobe Illustrator 15.0.0, SVG Export Plug-In . SVG Version: 6.00 Build 0)  -->
<!DOCTYPE svg PUBLIC "-//W3C//DTD SVG 1.1//EN" "http://www.w3.org/Graphics/SVG/1.1/DTD/svg11.dtd">
<svg version="1.1" id="Laag_1" xmlns="http://www.w3.org/2000/svg" xmlns:xlink="http://www.w3.org/1999/xlink" x="0px" y="0px"
	 width="215.43px" height="25.51px" viewBox="0 0 215.43 25.51" enable-background="new 0 0 215.43 25.51" xml:space="preserve">
<g>
	<path fill="none" d="M101.718,14.651c0.104-0.115,0.186-0.26,0.247-0.43c0.06-0.164,0.105-0.349,0.138-0.551
		c0.03-0.202,0.045-0.395,0.045-0.576c0-0.202-0.035-0.352-0.102-0.447c-0.069-0.095-0.168-0.144-0.297-0.144
		c-0.136,0-0.256,0.054-0.368,0.161c-0.11,0.107-0.201,0.263-0.271,0.468c-0.062,0.173-0.104,0.358-0.129,0.56
		c-0.026,0.199-0.041,0.377-0.041,0.535c0,0.209,0.036,0.361,0.104,0.455c0.071,0.096,0.172,0.143,0.304,0.143
		C101.49,14.826,101.613,14.771,101.718,14.651z"/>
	<path fill="none" d="M97.964,14.793c0.105,0,0.21-0.042,0.31-0.126c0.1-0.082,0.186-0.195,0.255-0.339
		c0.074-0.151,0.131-0.31,0.168-0.476c0.038-0.168,0.059-0.354,0.059-0.56c0-0.086-0.006-0.165-0.02-0.236
		c-0.013-0.072-0.034-0.134-0.064-0.186c-0.031-0.054-0.074-0.096-0.125-0.125c-0.054-0.029-0.12-0.044-0.198-0.044
		c-0.093,0-0.182,0.029-0.271,0.086s-0.154,0.11-0.195,0.16l-0.322,1.427c0,0.12,0.035,0.22,0.104,0.296
		C97.734,14.754,97.833,14.793,97.964,14.793z"/>
	<path fill="none" d="M119.046,12.693c-0.032-0.043-0.073-0.078-0.122-0.103c-0.048-0.025-0.114-0.038-0.198-0.038
		c-0.108,0-0.213,0.042-0.309,0.122c-0.097,0.083-0.183,0.195-0.256,0.336c-0.071,0.133-0.126,0.289-0.167,0.47
		c-0.042,0.182-0.063,0.367-0.063,0.559c0,0.086,0.007,0.164,0.021,0.236c0.013,0.072,0.032,0.136,0.063,0.185
		c0.031,0.056,0.073,0.097,0.127,0.125c0.053,0.028,0.118,0.044,0.198,0.044c0.081,0,0.164-0.023,0.244-0.07
		c0.079-0.049,0.15-0.105,0.217-0.177l0.329-1.424c0-0.043-0.006-0.087-0.018-0.133C119.103,12.779,119.08,12.734,119.046,12.693z"
		/>
	<path fill="none" d="M79.941,14.663c0.035,0.05,0.073,0.086,0.115,0.111c0.041,0.025,0.1,0.039,0.178,0.039
		c0.118,0,0.229-0.045,0.332-0.131c0.104-0.089,0.189-0.201,0.259-0.346c0.075-0.15,0.133-0.313,0.172-0.48
		c0.037-0.17,0.057-0.357,0.057-0.563c0-0.086-0.005-0.165-0.018-0.236c-0.013-0.072-0.033-0.134-0.064-0.186
		c-0.031-0.054-0.074-0.096-0.127-0.125c-0.052-0.029-0.118-0.044-0.198-0.044c-0.088,0-0.173,0.024-0.251,0.074
		c-0.081,0.049-0.151,0.107-0.213,0.172l-0.329,1.451c0,0.043,0.006,0.084,0.021,0.129C79.884,14.571,79.907,14.616,79.941,14.663z"
		/>
	<path fill="none" d="M111.864,12.706c-0.03-0.045-0.071-0.079-0.121-0.103c-0.051-0.024-0.114-0.035-0.188-0.035
		c-0.116,0-0.222,0.041-0.317,0.124c-0.096,0.082-0.18,0.191-0.256,0.328c-0.071,0.135-0.13,0.292-0.171,0.471
		c-0.042,0.179-0.063,0.361-0.063,0.548c0,0.086,0.009,0.164,0.021,0.235c0.013,0.074,0.033,0.137,0.063,0.186
		c0.03,0.055,0.072,0.096,0.127,0.125c0.052,0.029,0.12,0.044,0.199,0.044s0.157-0.022,0.233-0.071
		c0.075-0.048,0.146-0.104,0.21-0.176l0.331-1.409c0-0.039-0.004-0.083-0.016-0.135C111.907,12.786,111.889,12.742,111.864,12.706z"
		/>
	<path fill="none" d="M100.397,24.369h4.684c1.329,0,2.457-0.076,3.382-0.226c0.926-0.149,1.733-0.396,2.429-0.737
		s1.3-0.79,1.82-1.347c1.23-1.254,2.045-2.972,2.485-5.094h-14.8V24.369z"/>
	<path fill="none" d="M77.4,12.706c-0.03-0.045-0.071-0.079-0.123-0.103c-0.049-0.023-0.111-0.035-0.187-0.035
		c-0.114,0-0.22,0.041-0.316,0.124c-0.097,0.082-0.183,0.191-0.256,0.328c-0.073,0.135-0.13,0.292-0.172,0.471
		c-0.041,0.179-0.062,0.361-0.062,0.548c0,0.086,0.006,0.164,0.019,0.235c0.014,0.074,0.036,0.137,0.065,0.186
		c0.03,0.055,0.072,0.096,0.125,0.125s0.119,0.044,0.198,0.044c0.082,0,0.16-0.022,0.236-0.071c0.075-0.048,0.146-0.104,0.209-0.176
		l0.332-1.409c0-0.039-0.005-0.083-0.016-0.135C77.445,12.786,77.427,12.742,77.4,12.706z"/>
	<path fill="none" d="M9.766,17.836c0.393,1.463,0.959,2.724,1.699,3.781c0.74,1.057,1.625,1.864,2.654,2.42
		c1.028,0.556,2.173,0.834,3.434,0.834c1.712,0,3.202-0.488,4.467-1.465c1.268-0.978,2.238-2.374,2.914-4.189
		c0.258-0.692,0.452-1.454,0.612-2.25H9.581C9.641,17.257,9.692,17.558,9.766,17.836z"/>
	<path fill="none" d="M130.406,12.706c-0.029-0.045-0.07-0.079-0.121-0.103c-0.053-0.023-0.113-0.035-0.188-0.035
		c-0.116,0-0.221,0.041-0.315,0.124c-0.097,0.082-0.182,0.191-0.257,0.328c-0.072,0.135-0.131,0.292-0.172,0.471
		c-0.042,0.179-0.063,0.361-0.063,0.548c0,0.086,0.007,0.164,0.019,0.235c0.016,0.074,0.035,0.137,0.064,0.186
		c0.03,0.055,0.073,0.096,0.128,0.125c0.052,0.029,0.119,0.044,0.197,0.044c0.081,0,0.159-0.022,0.234-0.071
		c0.076-0.048,0.147-0.104,0.211-0.176l0.332-1.409c0-0.039-0.005-0.083-0.017-0.135C130.451,12.786,130.433,12.742,130.406,12.706z
		"/>
	<path fill="none" d="M133.355,17.836c0.392,1.463,0.958,2.724,1.698,3.781c0.739,1.058,1.623,1.864,2.652,2.42
		s2.174,0.834,3.434,0.834c1.714,0,3.203-0.488,4.468-1.465c1.269-0.978,2.238-2.374,2.914-4.189c0.259-0.692,0.451-1.454,0.61-2.25
		h-15.963C133.228,17.257,133.28,17.558,133.355,17.836z"/>
	<path fill="none" d="M85.96,13.333c0.057-0.091,0.084-0.21,0.084-0.36c0-0.147-0.026-0.259-0.079-0.338
		c-0.054-0.079-0.129-0.119-0.224-0.119c-0.134,0-0.26,0.109-0.379,0.327c-0.118,0.216-0.193,0.492-0.228,0.825
		c0.103-0.013,0.203-0.026,0.304-0.047s0.181-0.042,0.239-0.067C85.809,13.496,85.902,13.423,85.96,13.333z"/>
	<path fill="none" d="M114.199,6.142c-0.449-0.901-1.019-1.694-1.7-2.377c-0.567-0.555-1.204-1.003-1.916-1.345
		c-0.711-0.341-1.529-0.586-2.461-0.737c-0.931-0.149-2.049-0.226-3.357-0.226h-4.37h-0.005v7.905h14.856
		c-0.005-0.03-0.011-0.06-0.017-0.09C114.996,8.085,114.653,7.043,114.199,6.142z"/>
	<path fill="none" d="M147.383,4.517c-0.692-1.046-1.531-1.874-2.513-2.49c-0.487-0.321-1.049-0.582-1.686-0.779
		c-0.636-0.197-1.248-0.295-1.838-0.295c-1.053,0-2.042,0.181-2.975,0.546c-0.931,0.366-1.714,0.884-2.352,1.553
		c-0.695,0.727-1.287,1.593-1.778,2.593c-0.49,1.001-0.861,2.116-1.109,3.347c-0.023,0.12-0.041,0.249-0.062,0.37h16.156
		c-0.07-0.393-0.15-0.781-0.25-1.16C148.609,6.791,148.077,5.563,147.383,4.517z"/>
	<path fill="none" d="M23.797,4.517c-0.693-1.046-1.53-1.874-2.514-2.49c-0.486-0.321-1.048-0.582-1.684-0.779
		c-0.636-0.197-1.25-0.295-1.839-0.295c-1.051,0-2.042,0.181-2.974,0.546c-0.932,0.366-1.714,0.884-2.351,1.553
		c-0.694,0.727-1.287,1.593-1.778,2.593c-0.492,1-0.862,2.115-1.109,3.346c-0.023,0.12-0.042,0.249-0.063,0.37h16.158
		c-0.07-0.393-0.151-0.781-0.25-1.16C25.022,6.791,24.491,5.563,23.797,4.517z"/>
	<path fill="none" d="M143.147,12.971c0-0.043-0.006-0.087-0.018-0.133c-0.011-0.046-0.032-0.09-0.065-0.131
		c-0.034-0.044-0.072-0.078-0.123-0.103c-0.047-0.025-0.113-0.038-0.196-0.038c-0.112,0-0.218,0.041-0.313,0.121
		c-0.094,0.082-0.177,0.188-0.25,0.324c-0.072,0.134-0.128,0.289-0.169,0.467c-0.042,0.179-0.063,0.361-0.063,0.551
		c0,0.082,0.008,0.16,0.021,0.229c0.015,0.069,0.039,0.132,0.077,0.188c0.036,0.055,0.083,0.098,0.142,0.125
		c0.058,0.027,0.124,0.041,0.196,0.041c0.085,0,0.171-0.025,0.261-0.078c0.087-0.051,0.16-0.107,0.215-0.166L143.147,12.971z"/>
	<path fill="none" d="M133.918,12.693c-0.032-0.043-0.074-0.078-0.121-0.103c-0.049-0.025-0.114-0.038-0.197-0.038
		c-0.112,0-0.216,0.042-0.312,0.122c-0.097,0.083-0.184,0.195-0.256,0.336c-0.07,0.133-0.125,0.289-0.167,0.47
		c-0.041,0.182-0.063,0.367-0.063,0.559c0,0.086,0.006,0.164,0.021,0.236c0.014,0.072,0.034,0.136,0.063,0.185
		c0.03,0.056,0.072,0.097,0.127,0.125c0.052,0.028,0.117,0.044,0.197,0.044c0.084,0,0.163-0.023,0.243-0.07
		c0.082-0.049,0.153-0.105,0.219-0.177L134,12.957c0-0.043-0.005-0.087-0.017-0.133C133.973,12.779,133.951,12.734,133.918,12.693z"
		/>
	<path fill="#B68D40" d="M205.771,16.254h-5.116c0,0.001,0,0.003,0,0.004h-16.729l-0.003-0.004h-5.68l0.002,0.004h-6.925h-0.974
		h-0.188v-0.004h-5.064v0.004h-9.903c0.002-0.003,0.003-0.004,0.003-0.005h-5.915c0,0.001,0,0.002,0,0.005h-16.262
		c0-0.003-0.002-0.004-0.002-0.005h-5.959c0.001,0.001,0.001,0.002,0.001,0.005h-5.858h-5.845h-14.957h-5.115H82.185v-0.004h-5.117
		c0,0.001,0,0.003,0,0.004H60.339l-0.001-0.004h-5.68l0.001,0.004h-6.922h-0.976h-0.19v-0.004h-5.064v0.004h-9.9
		c0.001-0.003,0.001-0.004,0.001-0.005h-5.917c0,0.001,0,0.002,0,0.005H9.43c-0.001-0.003-0.001-0.004-0.001-0.005h-5.96
		c0,0.001,0.001,0.002,0.002,0.005H1v0.709h2.724c0.109,0.277,0.229,0.554,0.36,0.825c0.757,1.549,1.813,2.906,3.166,4.066
		c1.353,1.164,2.916,2.061,4.692,2.697c1.775,0.637,3.667,0.953,5.681,0.953c2.636,0,5.063-0.561,7.276-1.683
		c2.214-1.12,3.966-2.644,5.258-4.562c0.495-0.74,0.895-1.507,1.199-2.3h10.149v2.995c0,1.48-0.368,2.585-1.103,3.313
		c-0.732,0.73-1.846,1.095-3.338,1.095H36.39v0.678h15.298v-0.678h-0.711c-1.457,0-2.557-0.363-3.296-1.095
		c-0.74-0.729-1.109-1.832-1.109-3.313v-2.773l0.277-0.222h8.27l2.728,4.21c0.3,0.475,0.5,0.817,0.598,1.032
		c0.099,0.214,0.148,0.412,0.148,0.599c0,1.039-1.104,1.56-3.314,1.56h-0.78v0.679h14.952v-0.679h-0.452
		c-1.19,0-2.234-0.279-3.129-0.841c-0.896-0.563-1.749-1.465-2.56-2.715l-2.508-3.845h16.264c0,0.377,0,0.754,0,1.156
		c0,0.544,0,1.157,0,1.839c0,1.49-0.36,2.6-1.083,3.321c-0.723,0.725-1.831,1.083-3.32,1.083h-0.679v0.679h15.265v-0.679h-0.677
		c-1.479,0-2.582-0.36-3.304-1.083c-0.723-0.722-1.083-1.831-1.083-3.321v-2.995H95.28v2.997c0,1.491-0.362,2.598-1.084,3.321
		c-0.723,0.725-1.829,1.084-3.32,1.084H89.99v0.678h17.224c2.06,0,3.971-0.286,5.743-0.858c1.769-0.571,3.297-1.386,4.586-2.438
		c1.29-1.051,2.286-2.3,2.992-3.747c0.164-0.338,0.303-0.687,0.428-1.037h6.348c0.109,0.277,0.229,0.554,0.36,0.825
		c0.757,1.549,1.813,2.906,3.165,4.066c1.353,1.164,2.917,2.061,4.689,2.697c1.776,0.637,3.668,0.953,5.683,0.953
		c2.636,0,5.063-0.561,7.275-1.683c2.215-1.12,3.967-2.644,5.259-4.562c0.494-0.74,0.894-1.507,1.199-2.3h10.151v2.995
		c0,1.48-0.367,2.585-1.101,3.313c-0.733,0.73-1.849,1.095-3.341,1.095h-0.679v0.678h15.298v-0.678h-0.711
		c-1.458,0-2.556-0.363-3.296-1.095c-0.74-0.729-1.107-1.832-1.107-3.313v-2.773l0.275-0.222h8.271l2.727,4.21
		c0.301,0.475,0.5,0.817,0.599,1.032c0.099,0.214,0.148,0.412,0.148,0.599c0,1.039-1.103,1.559-3.315,1.559h-0.779v0.68h14.953
		v-0.68h-0.452c-1.19,0-2.234-0.278-3.131-0.84c-0.896-0.563-1.747-1.465-2.558-2.715l-2.51-3.845h16.265c0,0.377,0,0.754,0,1.156
		c0,0.544,0,1.157,0,1.839c0,1.49-0.36,2.6-1.083,3.32c-0.724,0.726-1.831,1.084-3.321,1.084h-0.677v0.679h15.264v-0.679h-0.675
		c-1.481,0-2.583-0.36-3.305-1.084c-0.725-0.721-1.084-1.83-1.084-3.32v-2.995h7.331v-0.709h-7.331l0,0H205.771z M24.935,19.217
		c-0.676,1.815-1.646,3.212-2.914,4.189c-1.266,0.977-2.755,1.465-4.467,1.465c-1.261,0-2.405-0.278-3.434-0.834
		c-1.029-0.556-1.914-1.362-2.654-2.42s-1.307-2.318-1.699-3.781c-0.075-0.278-0.125-0.579-0.185-0.869h15.965
		C25.387,17.763,25.193,18.522,24.935,19.217z M112.71,22.062c-0.521,0.556-1.126,1.004-1.82,1.346s-1.503,0.588-2.429,0.736
		c-0.925,0.149-2.053,0.227-3.382,0.227h-4.684v-7.402h14.8C114.755,19.089,113.942,20.808,112.71,22.062z M148.521,19.217
		c-0.676,1.815-1.646,3.212-2.914,4.189c-1.265,0.977-2.754,1.465-4.468,1.465c-1.26,0-2.403-0.278-3.434-0.834
		c-1.029-0.556-1.913-1.362-2.652-2.42c-0.74-1.058-1.308-2.318-1.698-3.781c-0.075-0.278-0.127-0.579-0.187-0.869h15.963
		C148.972,17.763,148.78,18.522,148.521,19.217z"/>
	<path fill="#B68D40" d="M205.771,9.361v-3.5c-0.002-1.503,0.356-2.614,1.074-3.33c0.717-0.718,1.819-1.075,3.313-1.075h0.675V0.814
		H195.57v0.642h0.677c1.388,0,2.431,0.306,3.122,0.919c0.382,0.302,0.669,0.677,0.86,1.127c0.189,0.451,0.331,1.058,0.425,1.821
		c0,1.034,0,2.392,0,4.038h-20.79l4.483-3.57c3.606-2.914,6.388-4.371,8.343-4.371h0.348V0.813h-14.171V1.42h0.571
		c1.271,0,2.278,0.258,3.018,0.772c0.74,0.513,1.109,1.206,1.109,2.073c0,0.531-0.129,0.997-0.39,1.396
		c-0.259,0.401-0.771,0.918-1.534,1.553l-2.682,2.147h-8.802v-3.5c0-1.491,0.368-2.604,1.108-3.339
		c0.739-0.733,1.838-1.102,3.297-1.102h0.71V0.813h-15.334V1.42h0.713c1.491,0,2.604,0.368,3.341,1.102
		c0.732,0.733,1.101,1.846,1.101,3.339v3.5h-10.047c-0.097-0.28-0.206-0.56-0.326-0.837c-0.635-1.451-1.536-2.766-2.707-3.946
		c-1.387-1.388-3.021-2.443-4.901-3.166c-1.877-0.724-3.949-1.083-6.217-1.083c-2.565,0-4.947,0.569-7.145,1.708
		c-2.198,1.139-3.95,2.681-5.258,4.624c-0.584,0.869-1.033,1.769-1.354,2.7h-6.307c-0.076-0.2-0.139-0.403-0.227-0.602
		c-0.651-1.469-1.58-2.787-2.783-3.956c-1.328-1.354-2.97-2.355-4.918-3.009c-1.947-0.655-4.229-0.98-6.843-0.98H89.984v0.642h0.887
		c1.501,0,2.611,0.357,3.328,1.075c0.718,0.718,1.076,1.827,1.076,3.33v3.5h-13.09v-3.5h-0.002c0-1.503,0.358-2.612,1.075-3.33
		c0.718-0.718,1.822-1.075,3.313-1.075h0.677V0.814H71.983v0.642h0.679c1.387,0,2.428,0.306,3.122,0.919
		c0.381,0.302,0.667,0.677,0.858,1.127c0.19,0.451,0.332,1.058,0.426,1.821c0,1.034,0,2.392,0,4.038H56.28l4.483-3.57
		c3.607-2.914,6.388-4.371,8.343-4.371h0.349V0.813H55.282V1.42h0.57c1.271,0,2.279,0.258,3.019,0.772
		c0.739,0.513,1.108,1.206,1.108,2.073c0,0.531-0.13,0.997-0.389,1.396c-0.26,0.401-0.772,0.918-1.536,1.553l-2.68,2.147h-8.805
		v-3.5c0-1.491,0.37-2.604,1.109-3.339c0.739-0.733,1.839-1.102,3.296-1.102h0.711V0.813H36.355V1.42h0.712
		c1.491,0,2.604,0.368,3.338,1.102c0.734,0.733,1.103,1.846,1.103,3.339v3.5H31.461c-0.099-0.28-0.205-0.56-0.326-0.837
		c-0.636-1.451-1.54-2.766-2.707-3.946c-1.387-1.388-3.022-2.443-4.901-3.166c-1.879-0.724-3.951-1.083-6.218-1.083
		c-2.565,0-4.949,0.569-7.145,1.708c-2.196,1.14-3.949,2.682-5.257,4.624C4.323,7.53,3.874,8.43,3.551,9.361H1v0.71h2.325
		c0,0.001,0,0.001,0,0.002h6.04c0-0.001,0-0.001,0-0.002h16.398h5.922h9.821h5.064h7.917h1.816h20.763h5.117h13.09h5.116h14.979
		c0,0.001,0,0.001,0,0.002h5.729c0-0.001-0.002-0.001-0.002-0.002h5.817c-0.002,0.001-0.002,0.001-0.002,0.002h6.04
		c0-0.001,0-0.001,0-0.002h16.398h5.922h9.822h5.064h7.913h1.819h20.763h5.116h7.331v-0.71H205.771z M9.485,9.361
		c0.022-0.122,0.04-0.25,0.063-0.37c0.248-1.231,0.618-2.346,1.109-3.347c0.491-1,1.084-1.866,1.778-2.593
		c0.636-0.669,1.419-1.187,2.351-1.553c0.932-0.365,1.923-0.546,2.974-0.546c0.589,0,1.204,0.098,1.839,0.295
		c0.635,0.197,1.197,0.458,1.684,0.779c0.983,0.616,1.82,1.444,2.514,2.49c0.694,1.047,1.225,2.274,1.596,3.685
		c0.099,0.379,0.179,0.767,0.25,1.16H9.485z M100.39,9.361V1.457h0.005h4.37c1.309,0,2.427,0.077,3.357,0.226
		c0.932,0.15,1.75,0.396,2.461,0.737c0.712,0.342,1.349,0.79,1.916,1.345c0.683,0.683,1.251,1.476,1.7,2.377
		c0.452,0.902,0.797,1.944,1.03,3.129c0.006,0.03,0.012,0.061,0.017,0.09H100.39z M133.073,9.361c0.02-0.122,0.036-0.25,0.061-0.37
		c0.248-1.231,0.619-2.346,1.109-3.347c0.491-1,1.083-1.866,1.778-2.593c0.638-0.669,1.421-1.187,2.352-1.553
		c0.933-0.365,1.922-0.546,2.975-0.546c0.59,0,1.202,0.098,1.838,0.295c0.638,0.197,1.197,0.458,1.686,0.779
		c0.98,0.616,1.819,1.444,2.513,2.49c0.694,1.047,1.226,2.274,1.597,3.685c0.1,0.379,0.18,0.767,0.25,1.16H133.073z"/>
	<path fill="#B68D40" d="M70.997,14.785c-0.172,0-0.325-0.037-0.458-0.112c-0.134-0.074-0.243-0.168-0.331-0.281
		c-0.087-0.109-0.159-0.232-0.215-0.373c-0.057-0.141-0.095-0.275-0.115-0.404h-0.224l-0.274,1.332h0.22l0.225-0.182
		c0.155,0.088,0.337,0.156,0.544,0.207s0.413,0.076,0.617,0.076c0.258,0,0.494-0.033,0.708-0.102
		c0.217-0.065,0.403-0.161,0.565-0.287c0.152-0.117,0.271-0.26,0.354-0.422c0.086-0.162,0.128-0.336,0.128-0.522
		c0-0.194-0.059-0.364-0.174-0.509c-0.116-0.143-0.275-0.256-0.475-0.339c-0.108-0.046-0.221-0.088-0.338-0.132
		c-0.118-0.042-0.23-0.083-0.338-0.124c-0.185-0.069-0.318-0.151-0.402-0.244c-0.086-0.093-0.127-0.204-0.127-0.329
		c0-0.178,0.071-0.327,0.212-0.444c0.143-0.118,0.317-0.177,0.529-0.177c0.152,0,0.283,0.03,0.392,0.09s0.198,0.14,0.271,0.241
		c0.074,0.104,0.132,0.221,0.176,0.351c0.042,0.129,0.074,0.27,0.097,0.417h0.224l0.271-1.257h-0.227l-0.195,0.156
		c-0.094-0.054-0.239-0.11-0.436-0.169c-0.198-0.059-0.397-0.089-0.599-0.089c-0.241,0-0.462,0.035-0.665,0.105
		c-0.201,0.071-0.371,0.164-0.508,0.28c-0.14,0.118-0.248,0.251-0.322,0.403c-0.074,0.148-0.11,0.306-0.11,0.468
		c0,0.178,0.051,0.345,0.152,0.501c0.104,0.157,0.255,0.279,0.458,0.362c0.103,0.045,0.209,0.086,0.323,0.127
		c0.113,0.041,0.23,0.084,0.353,0.128c0.19,0.069,0.328,0.151,0.415,0.247c0.085,0.1,0.128,0.212,0.128,0.341
		c0,0.198-0.075,0.36-0.227,0.481C71.449,14.726,71.248,14.785,70.997,14.785z"/>
	<path fill="#B68D40" d="M73.977,11.635l-0.188,0.788h-0.485l-0.062,0.268h0.475l-0.322,1.383c-0.019,0.09-0.033,0.163-0.042,0.22
		c-0.008,0.059-0.013,0.119-0.013,0.184c0,0.155,0.063,0.285,0.188,0.385c0.125,0.103,0.291,0.154,0.499,0.154
		c0.126,0,0.268-0.021,0.42-0.06c0.153-0.038,0.307-0.09,0.458-0.157l0.058-0.234c-0.039,0.015-0.104,0.031-0.199,0.053
		c-0.095,0.02-0.168,0.031-0.222,0.031c-0.112,0-0.196-0.021-0.25-0.059c-0.055-0.037-0.082-0.105-0.082-0.205
		c0-0.021,0.006-0.066,0.017-0.135c0.012-0.07,0.023-0.128,0.036-0.177l0.317-1.383h0.7l0.063-0.268h-0.705l0.182-0.788H73.977z"/>
	<path fill="#B68D40" d="M78.083,13.987l0.383-1.598l-0.037-0.042l-0.796,0.165c-0.075-0.063-0.171-0.113-0.288-0.148
		c-0.118-0.036-0.253-0.055-0.41-0.055c-0.214,0-0.416,0.045-0.607,0.136c-0.193,0.091-0.361,0.215-0.504,0.37
		c-0.144,0.157-0.257,0.341-0.342,0.547c-0.086,0.209-0.127,0.431-0.127,0.669c0,0.308,0.077,0.55,0.229,0.728
		c0.151,0.178,0.378,0.268,0.681,0.268c0.098,0,0.186-0.012,0.266-0.039c0.081-0.024,0.158-0.057,0.23-0.094
		c0.084-0.043,0.152-0.086,0.207-0.129c0.054-0.043,0.112-0.091,0.173-0.144h0.021c0.041,0.112,0.114,0.203,0.223,0.272
		c0.105,0.069,0.249,0.105,0.426,0.105c0.135,0,0.254-0.02,0.357-0.055c0.103-0.035,0.24-0.088,0.412-0.153l0.058-0.233
		c-0.029,0.012-0.077,0.027-0.145,0.045c-0.068,0.021-0.127,0.029-0.176,0.029c-0.11,0-0.188-0.02-0.232-0.057
		s-0.068-0.104-0.068-0.203c0-0.042,0.008-0.104,0.023-0.184C78.054,14.106,78.069,14.04,78.083,13.987z M77.138,14.382
		c-0.063,0.07-0.134,0.128-0.209,0.176c-0.076,0.049-0.154,0.071-0.236,0.071c-0.08,0-0.146-0.015-0.198-0.044
		s-0.095-0.07-0.125-0.125c-0.029-0.049-0.052-0.111-0.065-0.186c-0.013-0.071-0.019-0.149-0.019-0.235
		c0-0.187,0.021-0.369,0.062-0.548c0.042-0.18,0.099-0.336,0.172-0.471c0.074-0.137,0.16-0.246,0.256-0.328
		c0.097-0.083,0.202-0.124,0.316-0.124c0.075,0,0.137,0.012,0.187,0.035c0.052,0.023,0.092,0.057,0.123,0.103
		c0.027,0.036,0.045,0.08,0.056,0.132c0.01,0.052,0.016,0.096,0.016,0.135L77.138,14.382z"/>
	<path fill="#B68D40" d="M79.63,11.638l-0.653,2.8c0.083,0.129,0.181,0.231,0.289,0.313c0.111,0.08,0.229,0.143,0.354,0.186
		c0.098,0.035,0.21,0.06,0.335,0.072c0.125,0.014,0.219,0.021,0.282,0.021c0.267,0,0.507-0.045,0.724-0.135
		c0.216-0.088,0.403-0.213,0.562-0.373c0.149-0.153,0.263-0.336,0.342-0.547c0.08-0.213,0.12-0.437,0.12-0.672
		c0-0.31-0.075-0.552-0.227-0.729c-0.151-0.177-0.377-0.267-0.679-0.267c-0.078,0-0.165,0.014-0.263,0.04
		c-0.095,0.027-0.173,0.057-0.232,0.087c-0.077,0.042-0.141,0.079-0.188,0.113c-0.046,0.034-0.09,0.067-0.13,0.101h-0.018
		l0.393-1.685l-0.029-0.04l-1.369,0.066l-0.048,0.192c0.071,0.007,0.135,0.017,0.189,0.026c0.055,0.011,0.102,0.026,0.142,0.048
		s0.071,0.052,0.094,0.09c0.021,0.038,0.031,0.086,0.031,0.142c0,0.019-0.001,0.041-0.004,0.067
		C79.642,11.581,79.636,11.608,79.63,11.638z M80.181,12.95c0.062-0.065,0.132-0.123,0.213-0.172
		c0.079-0.05,0.163-0.074,0.251-0.074c0.08,0,0.146,0.015,0.198,0.044c0.053,0.029,0.096,0.071,0.127,0.125
		c0.032,0.052,0.053,0.114,0.064,0.186c0.013,0.072,0.018,0.15,0.018,0.236c0,0.205-0.02,0.394-0.057,0.563
		c-0.039,0.168-0.097,0.33-0.172,0.48c-0.069,0.145-0.155,0.258-0.259,0.346c-0.104,0.086-0.213,0.131-0.332,0.131
		c-0.078,0-0.137-0.014-0.178-0.039c-0.042-0.025-0.08-0.063-0.115-0.111c-0.034-0.047-0.057-0.092-0.068-0.135
		c-0.014-0.045-0.021-0.086-0.021-0.129L80.181,12.95z"/>
	<path fill="#B68D40" d="M83.08,11.638l-0.563,2.44c-0.014,0.065-0.025,0.131-0.038,0.2c-0.011,0.068-0.017,0.137-0.017,0.199
		c0,0.155,0.061,0.285,0.18,0.385c0.119,0.103,0.284,0.154,0.491,0.154c0.138,0,0.262-0.019,0.372-0.055
		c0.109-0.035,0.25-0.088,0.421-0.154l0.057-0.233c-0.03,0.015-0.083,0.03-0.157,0.048c-0.075,0.02-0.134,0.027-0.177,0.027
		c-0.114,0-0.198-0.019-0.249-0.056c-0.05-0.034-0.074-0.104-0.074-0.204c0-0.041,0.009-0.103,0.024-0.185
		c0.018-0.083,0.032-0.149,0.043-0.199l0.699-3.042l-0.029-0.04l-1.372,0.066l-0.047,0.192c0.071,0.007,0.134,0.015,0.188,0.023
		c0.053,0.009,0.101,0.025,0.142,0.047c0.042,0.023,0.074,0.053,0.094,0.088c0.021,0.037,0.031,0.086,0.031,0.147
		c0,0.019-0.002,0.041-0.004,0.067C83.092,11.581,83.087,11.608,83.08,11.638z"/>
	<path fill="#B68D40" d="M86.108,13.69c0.241-0.065,0.432-0.166,0.571-0.303c0.141-0.137,0.211-0.299,0.211-0.487
		c0-0.198-0.081-0.346-0.242-0.444c-0.163-0.1-0.397-0.149-0.709-0.149c-0.264,0-0.504,0.045-0.722,0.139
		c-0.218,0.091-0.399,0.21-0.54,0.357c-0.15,0.155-0.265,0.328-0.34,0.521c-0.077,0.191-0.115,0.39-0.115,0.594
		c0,0.162,0.025,0.311,0.075,0.441c0.05,0.135,0.125,0.252,0.226,0.353c0.104,0.101,0.231,0.179,0.39,0.233
		c0.156,0.059,0.338,0.086,0.546,0.086c0.269,0,0.524-0.067,0.768-0.198c0.243-0.133,0.443-0.31,0.6-0.533l-0.19-0.155
		c-0.13,0.17-0.266,0.295-0.409,0.373c-0.144,0.08-0.316,0.117-0.521,0.117c-0.119,0-0.217-0.021-0.292-0.068
		c-0.077-0.045-0.137-0.106-0.178-0.186c-0.035-0.066-0.062-0.148-0.078-0.242c-0.018-0.098-0.027-0.183-0.031-0.258
		c0.194-0.021,0.357-0.044,0.493-0.068C85.755,13.788,85.917,13.748,86.108,13.69z M85.135,13.668
		c0.033-0.333,0.109-0.609,0.228-0.825c0.119-0.218,0.245-0.327,0.379-0.327c0.095,0,0.17,0.04,0.224,0.119
		c0.053,0.079,0.079,0.191,0.079,0.338c0,0.149-0.028,0.269-0.084,0.36c-0.059,0.09-0.151,0.163-0.281,0.221
		c-0.059,0.025-0.139,0.049-0.239,0.067C85.338,13.642,85.238,13.655,85.135,13.668z"/>
	<path fill="#B68D40" d="M88.053,14.84c-0.011-0.043-0.033-0.11-0.063-0.2c-0.028-0.091-0.064-0.172-0.108-0.246
		c-0.047-0.082-0.105-0.148-0.176-0.203c-0.069-0.053-0.157-0.08-0.261-0.08c-0.125,0-0.225,0.037-0.3,0.113
		c-0.076,0.073-0.112,0.162-0.112,0.262c0,0.058,0.016,0.115,0.047,0.179c0.03,0.063,0.089,0.124,0.174,0.179
		c0.083,0.055,0.197,0.102,0.34,0.137c0.143,0.037,0.324,0.055,0.542,0.055c0.241,0,0.438-0.021,0.594-0.064
		c0.157-0.041,0.294-0.104,0.414-0.188c0.108-0.076,0.19-0.172,0.25-0.286c0.059-0.115,0.086-0.233,0.086-0.358
		c0-0.191-0.06-0.345-0.179-0.459C89.179,13.56,89,13.46,88.766,13.377c-0.104-0.035-0.187-0.065-0.256-0.093
		s-0.126-0.056-0.17-0.087c-0.041-0.027-0.072-0.063-0.096-0.103c-0.023-0.042-0.035-0.099-0.035-0.172
		c0-0.12,0.049-0.22,0.148-0.302c0.1-0.081,0.21-0.125,0.331-0.131c0.017,0.051,0.035,0.117,0.061,0.194
		c0.023,0.078,0.057,0.153,0.098,0.226c0.042,0.07,0.098,0.133,0.163,0.184c0.066,0.054,0.151,0.08,0.25,0.08
		c0.118,0,0.21-0.036,0.283-0.103c0.072-0.068,0.108-0.151,0.108-0.246c0-0.095-0.026-0.176-0.076-0.242
		c-0.051-0.066-0.123-0.121-0.216-0.163c-0.096-0.041-0.2-0.071-0.313-0.085c-0.111-0.017-0.234-0.024-0.366-0.024
		c-0.22,0-0.413,0.024-0.577,0.071c-0.165,0.048-0.3,0.111-0.409,0.191c-0.107,0.083-0.189,0.173-0.239,0.272
		c-0.053,0.097-0.077,0.202-0.077,0.313c0,0.186,0.062,0.343,0.184,0.469c0.123,0.125,0.288,0.225,0.498,0.294
		c0.075,0.026,0.152,0.056,0.231,0.084c0.079,0.029,0.143,0.06,0.191,0.09c0.051,0.034,0.092,0.071,0.121,0.116
		c0.032,0.043,0.046,0.096,0.046,0.16c0,0.146-0.051,0.26-0.15,0.346C88.397,14.797,88.249,14.84,88.053,14.84z"/>
	<path fill="#B68D40" d="M90.371,15.444c-0.082,0.08-0.16,0.142-0.234,0.186c-0.074,0.043-0.165,0.092-0.27,0.143l0.083,0.186
		c0.314-0.134,0.583-0.325,0.802-0.576c0.22-0.25,0.33-0.51,0.33-0.777c0-0.158-0.039-0.289-0.12-0.39
		c-0.078-0.101-0.204-0.151-0.374-0.151c-0.143,0-0.268,0.056-0.375,0.16c-0.108,0.105-0.162,0.229-0.162,0.362
		c0,0.11,0.038,0.202,0.113,0.267c0.077,0.063,0.195,0.094,0.355,0.094h0.152c-0.026,0.107-0.067,0.201-0.119,0.281
		C90.502,15.308,90.441,15.379,90.371,15.444z"/>
	<path fill="#B68D40" d="M94.358,14.785c-0.173,0-0.324-0.037-0.458-0.112c-0.134-0.074-0.242-0.168-0.33-0.281
		c-0.088-0.109-0.16-0.232-0.215-0.373s-0.094-0.275-0.114-0.404h-0.224l-0.274,1.332h0.22l0.223-0.182
		c0.157,0.088,0.338,0.156,0.545,0.207c0.206,0.051,0.413,0.076,0.617,0.076c0.258,0,0.495-0.033,0.708-0.102
		c0.215-0.065,0.404-0.161,0.564-0.287c0.151-0.117,0.271-0.26,0.355-0.422c0.085-0.162,0.127-0.336,0.127-0.522
		c0-0.194-0.058-0.364-0.174-0.509c-0.115-0.143-0.273-0.256-0.475-0.339c-0.108-0.046-0.223-0.088-0.34-0.132
		c-0.115-0.042-0.229-0.083-0.338-0.124c-0.184-0.069-0.316-0.151-0.401-0.244c-0.084-0.093-0.126-0.204-0.126-0.329
		c0-0.178,0.069-0.327,0.212-0.444c0.141-0.118,0.316-0.177,0.527-0.177c0.152,0,0.282,0.03,0.392,0.09
		c0.108,0.06,0.2,0.14,0.271,0.241c0.074,0.104,0.135,0.221,0.177,0.351c0.043,0.129,0.075,0.27,0.098,0.417h0.223l0.271-1.257
		h-0.227L96,11.415c-0.094-0.054-0.24-0.11-0.438-0.169c-0.195-0.059-0.396-0.089-0.597-0.089c-0.24,0-0.462,0.035-0.665,0.105
		c-0.201,0.071-0.371,0.164-0.507,0.28c-0.141,0.118-0.248,0.251-0.322,0.403c-0.075,0.148-0.111,0.306-0.111,0.468
		c0,0.178,0.051,0.345,0.152,0.501c0.102,0.157,0.254,0.279,0.457,0.362c0.102,0.045,0.21,0.086,0.323,0.127
		c0.112,0.041,0.23,0.084,0.352,0.128c0.19,0.069,0.33,0.151,0.415,0.247c0.086,0.1,0.129,0.212,0.129,0.341
		c0,0.198-0.076,0.36-0.227,0.481C94.809,14.726,94.608,14.785,94.358,14.785z"/>
	<path fill="#B68D40" d="M97.297,15.521l0.159-0.69c0.073,0.06,0.162,0.104,0.263,0.135c0.102,0.033,0.236,0.05,0.402,0.05
		c0.221,0,0.424-0.043,0.607-0.132c0.185-0.086,0.349-0.21,0.496-0.368c0.142-0.154,0.254-0.336,0.336-0.547
		s0.124-0.432,0.124-0.664c0-0.309-0.075-0.551-0.228-0.729c-0.15-0.177-0.377-0.267-0.678-0.267c-0.138,0-0.282,0.033-0.434,0.099
		c-0.149,0.066-0.305,0.167-0.463,0.307h-0.021c-0.021-0.049-0.047-0.097-0.076-0.144c-0.031-0.047-0.069-0.087-0.116-0.119
		c-0.055-0.041-0.119-0.069-0.193-0.088c-0.072-0.018-0.157-0.027-0.252-0.027c-0.115,0-0.236,0.021-0.365,0.062
		s-0.264,0.09-0.403,0.146l-0.059,0.234c0.039-0.015,0.092-0.031,0.151-0.05c0.062-0.016,0.118-0.025,0.169-0.025
		c0.113,0,0.189,0.02,0.228,0.061s0.058,0.107,0.058,0.199c0,0.05-0.008,0.113-0.025,0.192c-0.016,0.078-0.029,0.142-0.041,0.194
		l-0.516,2.268c-0.014,0.07-0.036,0.125-0.067,0.165c-0.03,0.04-0.076,0.069-0.135,0.09c-0.035,0.012-0.085,0.021-0.154,0.03
		c-0.065,0.01-0.124,0.017-0.168,0.021l-0.043,0.179h1.879l0.041-0.179c-0.055-0.004-0.125-0.015-0.21-0.03
		c-0.085-0.018-0.146-0.033-0.184-0.052c-0.037-0.016-0.063-0.04-0.079-0.073s-0.027-0.067-0.027-0.108
		c0-0.013,0.003-0.031,0.009-0.062C97.288,15.567,97.293,15.542,97.297,15.521z M97.883,12.95c0.041-0.05,0.107-0.103,0.195-0.16
		s0.178-0.086,0.271-0.086c0.079,0,0.146,0.015,0.198,0.044c0.051,0.029,0.094,0.071,0.125,0.125
		c0.03,0.052,0.052,0.114,0.064,0.186c0.013,0.072,0.02,0.15,0.02,0.236c0,0.205-0.021,0.392-0.058,0.56
		c-0.038,0.166-0.095,0.324-0.169,0.476c-0.069,0.144-0.156,0.257-0.255,0.339c-0.099,0.084-0.203,0.126-0.31,0.126
		c-0.13,0-0.229-0.039-0.298-0.12c-0.069-0.076-0.104-0.176-0.104-0.296L97.883,12.95z"/>
	<path fill="#B68D40" d="M102.007,14.899c0.222-0.086,0.414-0.207,0.578-0.363c0.151-0.146,0.271-0.321,0.354-0.521
		c0.083-0.197,0.124-0.406,0.124-0.625c0-0.342-0.111-0.608-0.339-0.8c-0.227-0.192-0.535-0.288-0.927-0.288
		c-0.258,0-0.497,0.042-0.72,0.126c-0.223,0.084-0.408,0.199-0.562,0.342c-0.154,0.146-0.274,0.319-0.359,0.517
		c-0.085,0.196-0.129,0.411-0.129,0.644c0,0.338,0.113,0.605,0.342,0.803c0.226,0.197,0.523,0.297,0.894,0.297
		C101.537,15.03,101.786,14.985,102.007,14.899z M100.942,14.229c0-0.158,0.015-0.336,0.041-0.535
		c0.025-0.201,0.067-0.387,0.129-0.56c0.069-0.206,0.16-0.361,0.271-0.468c0.111-0.107,0.231-0.161,0.368-0.161
		c0.128,0,0.228,0.048,0.297,0.144c0.066,0.095,0.102,0.245,0.102,0.447c0,0.181-0.016,0.375-0.045,0.576
		c-0.032,0.202-0.079,0.387-0.138,0.551c-0.063,0.17-0.144,0.313-0.247,0.43c-0.105,0.117-0.228,0.175-0.369,0.175
		c-0.132,0-0.232-0.046-0.304-0.142C100.978,14.591,100.942,14.438,100.942,14.229z"/>
	<path fill="#B68D40" d="M105.164,13.124c0,0.081,0.038,0.152,0.112,0.217c0.074,0.063,0.177,0.096,0.307,0.096
		c0.101,0,0.178-0.015,0.233-0.043s0.108-0.072,0.159-0.131c0.045-0.053,0.078-0.115,0.101-0.188
		c0.021-0.073,0.034-0.147,0.034-0.225c0-0.176-0.044-0.31-0.127-0.401c-0.086-0.095-0.2-0.14-0.349-0.14
		c-0.136,0-0.265,0.037-0.384,0.109c-0.121,0.071-0.267,0.198-0.438,0.38h-0.017c-0.033-0.146-0.102-0.259-0.203-0.338
		c-0.1-0.082-0.252-0.122-0.457-0.122c-0.114,0-0.235,0.021-0.363,0.062s-0.264,0.09-0.401,0.146l-0.059,0.234
		c0.042-0.015,0.091-0.031,0.149-0.05c0.058-0.016,0.115-0.025,0.171-0.025c0.11,0,0.185,0.018,0.223,0.055
		c0.042,0.037,0.061,0.104,0.061,0.206c0,0.051-0.008,0.116-0.025,0.195c-0.016,0.077-0.03,0.141-0.041,0.188l-0.355,1.6h0.855
		l0.412-1.839c0.075-0.09,0.157-0.17,0.24-0.241c0.083-0.069,0.184-0.129,0.3-0.177c-0.047,0.109-0.081,0.19-0.103,0.245
		C105.175,12.986,105.164,13.05,105.164,13.124z"/>
	<path fill="#B68D40" d="M107.088,11.635l-0.188,0.788h-0.484l-0.063,0.268h0.475l-0.322,1.383c-0.02,0.09-0.033,0.163-0.041,0.22
		c-0.008,0.059-0.012,0.119-0.012,0.184c0,0.155,0.061,0.285,0.187,0.385c0.125,0.103,0.291,0.154,0.499,0.154
		c0.126,0,0.267-0.021,0.419-0.06c0.153-0.038,0.309-0.09,0.46-0.157l0.056-0.234c-0.036,0.015-0.104,0.031-0.196,0.053
		c-0.097,0.02-0.17,0.031-0.224,0.031c-0.112,0-0.195-0.021-0.25-0.059c-0.055-0.037-0.082-0.105-0.082-0.205
		c0-0.021,0.005-0.066,0.017-0.135c0.011-0.07,0.022-0.128,0.034-0.177l0.317-1.383h0.702l0.063-0.268h-0.706l0.184-0.788H107.088z"
		/>
	<path fill="#B68D40" d="M112.546,13.987l0.381-1.598l-0.034-0.042l-0.798,0.165c-0.075-0.063-0.171-0.113-0.288-0.148
		c-0.115-0.036-0.253-0.055-0.409-0.055c-0.214,0-0.417,0.045-0.607,0.136c-0.193,0.091-0.36,0.215-0.504,0.37
		c-0.145,0.157-0.258,0.341-0.342,0.547c-0.086,0.209-0.128,0.431-0.128,0.669c0,0.308,0.076,0.55,0.229,0.728
		c0.155,0.178,0.38,0.268,0.682,0.268c0.1,0,0.188-0.012,0.269-0.039c0.082-0.024,0.156-0.057,0.229-0.094
		c0.083-0.043,0.152-0.086,0.207-0.129c0.056-0.043,0.113-0.091,0.173-0.144h0.021c0.042,0.112,0.115,0.203,0.221,0.272
		c0.107,0.069,0.25,0.105,0.429,0.105c0.136,0,0.252-0.02,0.356-0.055c0.103-0.035,0.241-0.088,0.411-0.153l0.057-0.233
		c-0.025,0.012-0.075,0.027-0.143,0.045c-0.068,0.021-0.127,0.029-0.177,0.029c-0.11,0-0.188-0.02-0.232-0.057
		c-0.047-0.037-0.068-0.104-0.068-0.203c0-0.042,0.008-0.104,0.023-0.184C112.517,14.106,112.531,14.04,112.546,13.987z
		 M111.601,14.382c-0.063,0.07-0.135,0.128-0.21,0.176c-0.076,0.049-0.154,0.071-0.233,0.071s-0.147-0.015-0.199-0.044
		c-0.055-0.029-0.097-0.07-0.127-0.125c-0.029-0.049-0.051-0.111-0.063-0.186c-0.013-0.071-0.021-0.149-0.021-0.235
		c0-0.187,0.021-0.369,0.063-0.548c0.041-0.18,0.1-0.336,0.171-0.471c0.076-0.137,0.16-0.246,0.256-0.328
		c0.097-0.083,0.201-0.124,0.317-0.124c0.073,0,0.138,0.012,0.188,0.035c0.05,0.023,0.091,0.057,0.121,0.103
		c0.025,0.036,0.045,0.08,0.054,0.132c0.012,0.052,0.016,0.096,0.016,0.135L111.601,14.382z"/>
	<path fill="#B68D40" d="M116.207,13.979l0.195-0.73c0.023-0.081,0.038-0.158,0.044-0.229c0.006-0.072,0.011-0.128,0.011-0.167
		c0-0.151-0.056-0.279-0.164-0.386c-0.108-0.105-0.26-0.158-0.45-0.158c-0.205,0-0.396,0.043-0.578,0.129
		c-0.181,0.086-0.355,0.206-0.524,0.36h-0.02c-0.032-0.146-0.1-0.259-0.203-0.338c-0.1-0.082-0.254-0.122-0.458-0.122
		c-0.113,0-0.234,0.021-0.363,0.062s-0.263,0.09-0.402,0.146l-0.058,0.234c0.041-0.015,0.092-0.031,0.148-0.05
		c0.06-0.016,0.115-0.025,0.171-0.025c0.107,0,0.183,0.018,0.223,0.056c0.041,0.038,0.063,0.105,0.063,0.205
		c0,0.051-0.01,0.116-0.025,0.195c-0.016,0.077-0.028,0.141-0.041,0.188l-0.367,1.6h0.857l0.434-1.875
		c0.134-0.125,0.256-0.211,0.362-0.257c0.11-0.045,0.194-0.068,0.252-0.068c0.097,0,0.163,0.023,0.203,0.069
		c0.04,0.048,0.061,0.113,0.061,0.195c0,0.039-0.006,0.087-0.016,0.147c-0.009,0.06-0.022,0.127-0.042,0.201l-0.188,0.691
		c-0.025,0.098-0.039,0.18-0.044,0.242c-0.003,0.064-0.008,0.119-0.008,0.16c0,0.152,0.06,0.281,0.172,0.384
		c0.114,0.103,0.274,0.153,0.481,0.153c0.135,0,0.255-0.018,0.356-0.055c0.103-0.033,0.239-0.084,0.412-0.151l0.057-0.235
		c-0.03,0.016-0.077,0.031-0.145,0.049c-0.063,0.019-0.123,0.027-0.175,0.027c-0.111,0-0.188-0.02-0.233-0.055
		c-0.044-0.037-0.066-0.104-0.066-0.206c0-0.039,0.008-0.099,0.022-0.177C116.174,14.108,116.19,14.039,116.207,13.979z"/>
	<path fill="#B68D40" d="M119.431,11.648l-0.194,0.844c-0.069-0.056-0.158-0.1-0.267-0.133c-0.108-0.035-0.24-0.051-0.4-0.051
		c-0.212,0-0.414,0.045-0.605,0.136c-0.193,0.091-0.357,0.215-0.5,0.37c-0.141,0.157-0.254,0.341-0.337,0.548
		c-0.082,0.207-0.124,0.43-0.124,0.668c0,0.308,0.075,0.55,0.229,0.728c0.154,0.179,0.38,0.267,0.682,0.267
		c0.103,0,0.188-0.012,0.269-0.035c0.077-0.022,0.155-0.055,0.237-0.096c0.088-0.043,0.159-0.086,0.214-0.129
		s0.112-0.092,0.173-0.145h0.021c0.041,0.111,0.115,0.203,0.221,0.271c0.106,0.07,0.249,0.106,0.429,0.106
		c0.134,0,0.253-0.019,0.354-0.056c0.102-0.034,0.238-0.086,0.41-0.152l0.057-0.234c-0.026,0.012-0.076,0.028-0.146,0.047
		c-0.066,0.02-0.126,0.028-0.174,0.028c-0.111,0-0.188-0.019-0.232-0.057c-0.044-0.037-0.065-0.104-0.065-0.203
		c0-0.042,0.008-0.104,0.023-0.187c0.018-0.084,0.03-0.147,0.044-0.199l0.697-3.022l-0.028-0.04l-1.456,0.066l-0.046,0.192
		c0.073,0.009,0.144,0.018,0.205,0.029c0.063,0.011,0.116,0.027,0.166,0.05c0.053,0.023,0.093,0.053,0.123,0.094
		c0.028,0.039,0.043,0.088,0.043,0.145c0,0.017-0.001,0.041-0.007,0.069C119.44,11.597,119.435,11.625,119.431,11.648z
		 M118.801,14.382c-0.065,0.07-0.138,0.128-0.217,0.176c-0.08,0.049-0.163,0.071-0.244,0.071c-0.08,0-0.146-0.015-0.198-0.044
		c-0.054-0.029-0.096-0.07-0.127-0.125c-0.029-0.049-0.05-0.111-0.063-0.186c-0.015-0.071-0.021-0.149-0.021-0.235
		c0-0.19,0.021-0.377,0.063-0.56c0.041-0.181,0.096-0.335,0.167-0.469c0.073-0.141,0.159-0.253,0.256-0.336
		c0.096-0.081,0.199-0.122,0.309-0.122c0.084,0,0.15,0.013,0.198,0.038c0.049,0.024,0.09,0.06,0.122,0.103
		c0.034,0.041,0.057,0.086,0.066,0.131c0.012,0.046,0.018,0.09,0.018,0.133L118.801,14.382z"/>
	<path fill="#B68D40" d="M122.028,12.314h0.2c0.039-0.068,0.089-0.142,0.146-0.221c0.056-0.078,0.127-0.166,0.214-0.262
		c0.072-0.079,0.146-0.151,0.225-0.216c0.076-0.067,0.147-0.104,0.209-0.113c0.085-0.007,0.161-0.014,0.229-0.017
		c0.065-0.006,0.132-0.008,0.197-0.008h0.104l-0.681,2.944c-0.016,0.064-0.04,0.12-0.072,0.168c-0.036,0.045-0.088,0.082-0.157,0.11
		c-0.04,0.014-0.106,0.026-0.199,0.036c-0.094,0.011-0.166,0.019-0.214,0.021l-0.044,0.188h2.058l0.043-0.188
		c-0.054-0.006-0.118-0.017-0.197-0.031c-0.08-0.018-0.141-0.035-0.184-0.053c-0.045-0.02-0.074-0.045-0.091-0.076
		s-0.024-0.068-0.024-0.111c0-0.012,0.002-0.029,0.007-0.057s0.01-0.056,0.018-0.086l0.661-2.866h0.13
		c0.061,0,0.129,0.003,0.209,0.008c0.08,0.004,0.147,0.011,0.2,0.017c0.058,0.011,0.107,0.046,0.151,0.105
		c0.043,0.059,0.082,0.133,0.117,0.224c0.035,0.086,0.063,0.173,0.082,0.261c0.02,0.09,0.032,0.163,0.039,0.222h0.201l0.243-1.056
		h-3.572L122.028,12.314z"/>
	<path fill="#B68D40" d="M127.28,13.124c0,0.081,0.036,0.152,0.112,0.217c0.073,0.063,0.175,0.096,0.307,0.096
		c0.101,0,0.179-0.015,0.232-0.043c0.056-0.028,0.109-0.072,0.159-0.131c0.044-0.053,0.078-0.115,0.101-0.188
		c0.023-0.073,0.034-0.147,0.034-0.225c0-0.176-0.042-0.31-0.128-0.401c-0.083-0.095-0.202-0.14-0.348-0.14
		c-0.14,0-0.267,0.037-0.385,0.109c-0.121,0.071-0.266,0.198-0.438,0.38h-0.017c-0.035-0.146-0.102-0.259-0.202-0.338
		c-0.103-0.082-0.253-0.122-0.458-0.122c-0.113,0-0.235,0.021-0.364,0.062c-0.128,0.041-0.261,0.09-0.401,0.146l-0.058,0.234
		c0.042-0.015,0.091-0.031,0.149-0.05c0.059-0.016,0.115-0.025,0.171-0.025c0.108,0,0.186,0.018,0.225,0.055
		c0.038,0.037,0.059,0.104,0.059,0.206c0,0.051-0.008,0.116-0.022,0.195c-0.019,0.077-0.031,0.141-0.041,0.188l-0.359,1.6h0.857
		l0.41-1.839c0.076-0.09,0.155-0.17,0.239-0.241c0.086-0.069,0.185-0.129,0.303-0.177c-0.047,0.109-0.083,0.19-0.104,0.245
		C127.29,12.986,127.28,13.05,127.28,13.124z"/>
	<path fill="#B68D40" d="M131.089,13.987l0.381-1.598l-0.034-0.042l-0.797,0.165c-0.076-0.063-0.17-0.113-0.288-0.148
		c-0.118-0.036-0.254-0.055-0.41-0.055c-0.213,0-0.416,0.045-0.608,0.136c-0.191,0.091-0.358,0.215-0.502,0.37
		c-0.145,0.157-0.257,0.341-0.343,0.547c-0.086,0.209-0.127,0.431-0.127,0.669c0,0.308,0.075,0.55,0.229,0.728
		c0.154,0.178,0.38,0.268,0.682,0.268c0.099,0,0.187-0.012,0.269-0.039c0.08-0.024,0.155-0.057,0.229-0.094
		c0.083-0.043,0.151-0.086,0.206-0.129s0.112-0.091,0.174-0.144h0.021c0.042,0.112,0.114,0.203,0.222,0.272
		c0.106,0.069,0.25,0.105,0.428,0.105c0.137,0,0.255-0.02,0.356-0.055c0.104-0.035,0.241-0.088,0.412-0.153l0.057-0.233
		c-0.025,0.012-0.075,0.027-0.144,0.045c-0.068,0.021-0.127,0.029-0.175,0.029c-0.111,0-0.19-0.02-0.234-0.057
		c-0.046-0.037-0.067-0.104-0.067-0.203c0-0.042,0.009-0.104,0.023-0.184C131.059,14.106,131.074,14.04,131.089,13.987z
		 M130.145,14.382c-0.063,0.07-0.135,0.128-0.211,0.176c-0.075,0.049-0.152,0.071-0.234,0.071c-0.078,0-0.146-0.015-0.197-0.044
		c-0.054-0.029-0.098-0.07-0.128-0.125c-0.029-0.049-0.05-0.111-0.064-0.186c-0.012-0.071-0.019-0.149-0.019-0.235
		c0-0.187,0.021-0.369,0.063-0.548c0.041-0.18,0.1-0.336,0.172-0.471c0.075-0.137,0.16-0.246,0.257-0.328
		c0.096-0.083,0.199-0.124,0.315-0.124c0.074,0,0.136,0.012,0.188,0.035c0.051,0.023,0.092,0.057,0.121,0.103
		c0.026,0.036,0.046,0.08,0.055,0.132c0.012,0.052,0.017,0.096,0.017,0.135L130.145,14.382z"/>
	<path fill="#B68D40" d="M134.301,11.648l-0.193,0.844c-0.069-0.056-0.157-0.1-0.267-0.133c-0.106-0.035-0.24-0.051-0.4-0.051
		c-0.211,0-0.413,0.045-0.604,0.136c-0.194,0.091-0.36,0.215-0.5,0.37c-0.144,0.157-0.257,0.341-0.338,0.548
		c-0.083,0.207-0.125,0.43-0.125,0.668c0,0.308,0.076,0.55,0.229,0.728c0.151,0.179,0.38,0.267,0.683,0.267
		c0.1,0,0.189-0.012,0.267-0.035c0.077-0.022,0.155-0.055,0.239-0.096c0.084-0.043,0.156-0.086,0.211-0.129s0.115-0.092,0.175-0.145
		h0.022c0.04,0.111,0.113,0.203,0.22,0.271c0.105,0.07,0.25,0.106,0.427,0.106c0.136,0,0.255-0.019,0.355-0.056
		c0.103-0.034,0.237-0.086,0.411-0.152l0.057-0.234c-0.027,0.012-0.075,0.028-0.146,0.047c-0.068,0.02-0.127,0.028-0.174,0.028
		c-0.112,0-0.189-0.019-0.233-0.057c-0.044-0.037-0.065-0.104-0.065-0.203c0-0.042,0.008-0.104,0.024-0.187
		c0.016-0.084,0.029-0.147,0.043-0.199l0.697-3.022l-0.027-0.04l-1.456,0.066l-0.047,0.192c0.075,0.009,0.144,0.018,0.206,0.029
		c0.061,0.011,0.116,0.027,0.165,0.05c0.054,0.023,0.093,0.053,0.121,0.094c0.03,0.039,0.047,0.088,0.047,0.145
		c0,0.017-0.004,0.041-0.009,0.069C134.313,11.597,134.308,11.625,134.301,11.648z M133.673,14.382
		c-0.064,0.07-0.137,0.128-0.219,0.176c-0.08,0.049-0.159,0.071-0.243,0.071c-0.08,0-0.146-0.015-0.197-0.044
		c-0.055-0.029-0.097-0.07-0.127-0.125c-0.029-0.049-0.051-0.111-0.063-0.186c-0.016-0.071-0.021-0.149-0.021-0.235
		c0-0.19,0.021-0.377,0.063-0.56c0.042-0.181,0.097-0.335,0.167-0.469c0.072-0.141,0.159-0.253,0.256-0.336
		c0.096-0.081,0.198-0.122,0.312-0.122c0.083,0,0.148,0.013,0.197,0.038c0.047,0.024,0.089,0.06,0.121,0.103
		c0.033,0.041,0.055,0.086,0.066,0.131c0.012,0.046,0.017,0.09,0.017,0.133L133.673,14.382z"/>
	<path fill="#B68D40" d="M136.629,11.877c0.14,0,0.26-0.046,0.358-0.139c0.1-0.093,0.148-0.205,0.148-0.336
		c0-0.131-0.05-0.245-0.148-0.338c-0.1-0.093-0.22-0.139-0.358-0.139c-0.143,0-0.261,0.045-0.36,0.139
		c-0.102,0.094-0.15,0.207-0.15,0.338c0,0.132,0.05,0.244,0.15,0.336C136.368,11.831,136.488,11.877,136.629,11.877z"/>
	<path fill="#B68D40" d="M135.387,12.516l-0.059,0.235c0.043-0.017,0.093-0.032,0.15-0.049c0.059-0.019,0.114-0.027,0.17-0.027
		c0.112,0,0.189,0.02,0.229,0.059c0.041,0.038,0.061,0.105,0.061,0.202c0,0.053-0.006,0.114-0.02,0.178
		c-0.014,0.065-0.03,0.134-0.047,0.207l-0.215,0.759c-0.02,0.08-0.034,0.151-0.042,0.214c-0.01,0.063-0.015,0.127-0.015,0.188
		c0,0.154,0.06,0.285,0.173,0.385c0.114,0.102,0.276,0.152,0.486,0.152c0.134,0,0.252-0.018,0.354-0.054
		c0.104-0.034,0.24-0.088,0.411-0.153l0.058-0.234c-0.03,0.015-0.077,0.029-0.144,0.048c-0.065,0.019-0.125,0.026-0.177,0.026
		c-0.109,0-0.188-0.018-0.233-0.055c-0.045-0.035-0.067-0.104-0.067-0.203c0-0.041,0.008-0.101,0.021-0.178
		c0.016-0.078,0.03-0.146,0.048-0.207l0.214-0.759c0.021-0.068,0.035-0.145,0.044-0.228c0.008-0.083,0.011-0.141,0.011-0.174
		c0-0.161-0.056-0.289-0.165-0.388c-0.114-0.101-0.273-0.15-0.479-0.15c-0.114,0-0.236,0.021-0.363,0.061
		C135.662,12.411,135.527,12.459,135.387,12.516z"/>
	<path fill="#B68D40" d="M140.222,13.979l0.198-0.73c0.022-0.081,0.037-0.158,0.044-0.229c0.005-0.072,0.008-0.128,0.008-0.167
		c0-0.151-0.054-0.279-0.162-0.386c-0.107-0.105-0.26-0.158-0.45-0.158c-0.206,0-0.397,0.043-0.577,0.129
		c-0.183,0.086-0.356,0.206-0.526,0.36h-0.019c-0.032-0.146-0.101-0.259-0.202-0.338c-0.102-0.082-0.256-0.122-0.458-0.122
		c-0.115,0-0.236,0.021-0.364,0.062s-0.263,0.09-0.402,0.146l-0.057,0.234c0.041-0.015,0.091-0.031,0.147-0.05
		c0.06-0.016,0.115-0.025,0.17-0.025c0.108,0,0.184,0.018,0.223,0.056c0.043,0.038,0.063,0.105,0.063,0.205
		c0,0.051-0.009,0.116-0.023,0.195c-0.019,0.077-0.03,0.141-0.041,0.188l-0.369,1.6h0.857l0.433-1.875
		c0.135-0.125,0.258-0.211,0.365-0.257c0.108-0.045,0.192-0.068,0.252-0.068c0.095,0,0.163,0.023,0.202,0.069
		c0.039,0.048,0.06,0.113,0.06,0.195c0,0.039-0.004,0.087-0.014,0.147c-0.011,0.06-0.023,0.127-0.044,0.201l-0.188,0.691
		c-0.024,0.098-0.039,0.18-0.044,0.242c-0.004,0.064-0.006,0.119-0.006,0.16c0,0.152,0.057,0.281,0.171,0.384
		c0.115,0.103,0.274,0.153,0.482,0.153c0.136,0,0.255-0.018,0.355-0.055c0.104-0.033,0.239-0.084,0.412-0.151l0.057-0.235
		c-0.029,0.016-0.077,0.031-0.144,0.049c-0.067,0.019-0.126,0.027-0.176,0.027c-0.112,0-0.188-0.02-0.234-0.055
		c-0.044-0.037-0.065-0.104-0.065-0.206c0-0.039,0.009-0.099,0.021-0.177C140.189,14.108,140.204,14.039,140.222,13.979z"/>
	<path fill="#B68D40" d="M142.424,15.646c-0.074,0.086-0.149,0.146-0.229,0.178c-0.078,0.029-0.158,0.054-0.236,0.068
		c-0.023-0.055-0.058-0.121-0.102-0.205c-0.043-0.084-0.09-0.16-0.14-0.224c-0.055-0.069-0.119-0.131-0.193-0.183
		c-0.073-0.049-0.156-0.074-0.251-0.074c-0.125,0-0.222,0.039-0.292,0.118c-0.069,0.077-0.105,0.168-0.105,0.267
		c0,0.057,0.013,0.115,0.038,0.176c0.024,0.06,0.072,0.112,0.144,0.162c0.071,0.051,0.172,0.092,0.309,0.123
		c0.133,0.032,0.308,0.049,0.521,0.049c0.198,0,0.389-0.023,0.57-0.072c0.18-0.047,0.354-0.133,0.521-0.256
		c0.164-0.121,0.306-0.285,0.431-0.489c0.121-0.205,0.217-0.464,0.288-0.78l0.442-2.113l-0.036-0.042l-0.795,0.165
		c-0.087-0.069-0.188-0.121-0.31-0.154c-0.119-0.033-0.258-0.049-0.413-0.049c-0.212,0-0.414,0.045-0.606,0.136
		c-0.19,0.09-0.355,0.211-0.498,0.365c-0.143,0.159-0.255,0.34-0.338,0.545c-0.083,0.205-0.125,0.424-0.125,0.658
		c0,0.31,0.082,0.551,0.243,0.729c0.162,0.176,0.395,0.265,0.696,0.265c0.104,0,0.191-0.011,0.263-0.028
		c0.068-0.021,0.144-0.049,0.224-0.088c0.065-0.029,0.126-0.064,0.185-0.104c0.057-0.04,0.105-0.076,0.15-0.112h0.021
		c-0.053,0.271-0.113,0.479-0.176,0.629C142.56,15.446,142.493,15.563,142.424,15.646z M142.646,14.532
		c-0.09,0.053-0.176,0.078-0.261,0.078c-0.072,0-0.14-0.014-0.196-0.041c-0.059-0.027-0.104-0.07-0.142-0.125
		c-0.038-0.057-0.063-0.118-0.077-0.188c-0.014-0.069-0.021-0.147-0.021-0.229c0-0.188,0.021-0.373,0.063-0.551
		c0.041-0.178,0.097-0.333,0.169-0.467c0.073-0.135,0.156-0.242,0.25-0.324c0.097-0.08,0.201-0.121,0.313-0.121
		c0.083,0,0.149,0.013,0.196,0.038c0.051,0.024,0.09,0.059,0.123,0.103c0.033,0.042,0.056,0.085,0.065,0.131
		c0.012,0.046,0.018,0.09,0.018,0.133l-0.286,1.396C142.806,14.425,142.733,14.481,142.646,14.532z"/>
</g>
</svg>
